<svg width="182" height="63" viewBox="0 0 182 63" fill="none" xmlns="http://www.w3.org/2000/svg">
<path d="M91.0822 39.2369L96.1378 33.8211V29.5106H78.3872V34.8158H88.0489L83.6674 39.4579V43.7685H86.5884C89.06 43.7685 90.2958 44.5421 90.2958 46.0895C90.2958 46.8632 89.9588 47.5264 89.2847 47.9685C88.6106 48.4106 87.7119 48.6316 86.4761 48.6316C85.3526 48.6316 84.1168 48.4106 82.881 48.079C81.6452 47.7474 80.6341 47.1948 79.623 46.6421L77.1514 51.7264C78.3872 52.5 79.8477 53.0527 81.5329 53.4948C83.218 53.9369 84.9032 54.1579 86.7008 54.1579C89.06 54.1579 91.0822 53.8264 92.6551 53.0527C94.2279 52.279 95.4637 51.2842 96.2501 50.0685C97.0366 48.8527 97.3736 47.5264 97.3736 46.0895C97.3736 44.3211 96.8119 42.8843 95.6884 41.6685C94.6773 40.4527 93.1045 39.679 91.0822 39.2369ZM117.708 38.6843H108.271V29.6211H101.306V53.7158H108.271V44.3211H117.708V53.7158H124.674V29.6211H117.708V38.6843ZM171.746 41.2264L181.183 29.6211H172.87L164.219 41.0053H163.995V29.6211H157.142V53.7158H163.995V42.2211L172.308 53.7158H181.296L171.746 41.2264ZM147.143 30.5053C145.345 29.6211 143.323 29.179 141.076 29.179C138.717 29.179 136.695 29.6211 135.009 30.5053C133.212 31.3895 131.864 32.7158 130.965 34.4843C129.954 36.2527 129.504 38.3527 129.504 40.7843V53.8264H136.358V48.5211H145.907V53.8264H152.872V40.6737C152.872 38.2421 152.423 36.1421 151.412 34.3737C150.176 32.7158 148.828 31.3895 147.143 30.5053ZM145.682 43.1053H136.133V40.1211C136.133 38.3527 136.582 37.0264 137.481 36.1421C138.38 35.2579 139.503 34.8158 140.964 34.8158C142.424 34.8158 143.548 35.2579 144.446 36.1421C145.345 37.0264 145.795 38.3527 145.795 40.1211V43.1053H145.682ZM165.343 9.39479H161.186V21.8843H165.343V9.39479ZM137.032 17.2422H140.964V21.8843H145.233V9.39479H140.964V13.8158H137.032V9.39479H132.762V21.8843H137.032V17.2422ZM176.577 15.3632V21.7737H180.734V9.39479H176.69L172.308 15.9158V9.39479H168.151V21.8843H172.196L176.577 15.3632ZM108.383 21.2211C109.507 21.7737 110.63 22.1053 111.979 22.1053C113.214 22.1053 114.338 21.8843 115.237 21.4422C116.248 21 117.034 20.4474 117.596 19.5632L114.9 17.2422C114.113 18.2369 113.214 18.679 112.091 18.679C111.192 18.679 110.518 18.3474 109.956 17.7948C109.395 17.2422 109.17 16.4685 109.17 15.4737C109.17 14.479 109.395 13.8158 109.956 13.1527C110.518 12.6 111.192 12.2685 112.091 12.2685C113.102 12.2685 114.113 12.7106 114.9 13.7053L117.596 11.3843C116.922 10.6106 116.135 9.94742 115.237 9.50531C114.225 9.06321 113.214 8.84216 111.979 8.84216C110.63 8.84216 109.395 9.06321 108.383 9.61584C107.26 10.1685 106.474 10.9422 105.912 11.9369C105.35 12.9316 105.013 14.0369 105.013 15.3632C105.013 16.579 105.35 17.7948 105.912 18.679C106.474 19.8948 107.26 20.6685 108.383 21.2211ZM171.522 7.84742C172.083 8.40005 173.095 8.6211 174.555 8.6211C175.903 8.6211 176.914 8.40005 177.588 7.84742C178.262 7.29479 178.487 6.5211 178.487 5.52637H175.679C175.679 5.96847 175.566 6.18953 175.454 6.41058C175.229 6.63163 175.004 6.63163 174.555 6.63163C174.106 6.63163 173.881 6.5211 173.656 6.41058C173.544 6.18953 173.432 5.96847 173.432 5.52637H170.623C170.623 6.63163 170.848 7.40531 171.522 7.84742ZM103.328 18.679H97.0366V17.0211H102.317V14.0369H96.9242V12.6H102.991V9.39479H92.6551V21.8843H103.216V18.679H103.328ZM130.74 9.39479H119.169V12.6H122.876V21.7737H127.033V12.6H130.74V9.39479ZM159.95 17.2422C159.95 15.9158 159.501 14.8106 158.714 14.1474C157.816 13.4843 156.692 13.1527 155.007 13.1527H152.423V9.39479H148.266V21.8843H154.558C156.243 21.8843 157.591 21.5527 158.602 20.6685C159.501 19.8948 159.95 18.7895 159.95 17.2422ZM155.232 18.4579C155.007 18.679 154.558 18.9 154.108 18.9H152.311V16.1369H154.108C155.119 16.1369 155.569 16.579 155.569 17.3527C155.681 17.7948 155.456 18.2369 155.232 18.4579ZM83.3304 18.2369C84.0045 18.2369 84.7909 18.1264 85.5773 17.9053V21.8843H89.7341V9.39479H85.5773V14.5895C85.1279 14.8106 84.5662 14.9211 83.7798 14.9211C83.1057 14.9211 82.544 14.7 82.2069 14.3685C81.8699 14.0369 81.6452 13.4843 81.6452 12.7106V9.39479H77.6008V13.1527C77.6008 14.8106 78.0501 16.0264 79.0612 16.9106C80.0724 17.7948 81.4205 18.2369 83.3304 18.2369Z" fill="#251D27"/>
<path d="M47.4099 18.4579L26.963 38.5737L15.6161 27.4105L9.99877 32.9368L26.963 49.6263L53.0272 23.9842L47.4099 18.4579ZM7.8642 11.7158C7.8642 9.50526 9.66173 7.73684 11.9086 7.73684H21.3457V0H11.7963C5.28025 0 0 5.19474 0 11.7158V21H7.8642V11.7158ZM55.3864 11.7158V21H63.2506V11.6053C63.2506 5.19474 57.9704 0 51.4543 0H41.9049V7.73684H51.4543C53.5889 7.73684 55.3864 9.50526 55.3864 11.7158ZM55.3864 41.2263V50.621C55.3864 52.721 53.5889 54.4895 51.4543 54.4895H41.9049V62.2263H51.4543C57.9704 62.2263 63.363 57.0316 63.363 50.5105V41.1158H55.3864V41.2263ZM7.8642 50.621V41.2263H0V50.621C0 57.0316 5.28025 62.3368 11.9086 62.3368H21.3457V54.6H11.7963C9.66173 54.4895 7.8642 52.721 7.8642 50.621Z" fill="#251D27"/>
</svg>
