<svg width="1011" height="2280" viewBox="0 0 1011 2280" fill="none" xmlns="http://www.w3.org/2000/svg">
<g opacity="0.4">
<mask id="mask0" mask-type="alpha" maskUnits="userSpaceOnUse" x="-2" y="-2" width="723" height="2282">
<line x1="719.504" y1="2280" x2="719.504" y2="-0.000244162" stroke="black"/>
<line x1="699.503" y1="2280" x2="699.504" y2="-0.000244162" stroke="black"/>
<line x1="679.503" y1="2280" x2="679.504" y2="-0.000244162" stroke="black"/>
<line x1="659.503" y1="2280" x2="659.503" y2="-0.000244162" stroke="black"/>
<line x1="639.503" y1="2280" x2="639.503" y2="-0.000244162" stroke="black"/>
<line x1="619.503" y1="2280" x2="619.503" y2="-0.000244162" stroke="black"/>
<line x1="599.503" y1="2280" x2="599.503" y2="-0.000244162" stroke="black"/>
<line x1="579.503" y1="2280" x2="579.503" y2="-0.000244162" stroke="black"/>
<line x1="559.503" y1="2280" x2="559.503" y2="-0.000244162" stroke="black"/>
<line x1="539.503" y1="2280" x2="539.503" y2="-0.000244162" stroke="black"/>
<line x1="519.502" y1="2280" x2="519.503" y2="-0.000244162" stroke="black"/>
<line x1="499.502" y1="2280" x2="499.503" y2="-0.000244162" stroke="black"/>
<line x1="479.502" y1="2280" x2="479.503" y2="-0.000244162" stroke="black"/>
<line x1="459.502" y1="2280" x2="459.502" y2="-0.000244162" stroke="black"/>
<line x1="439.502" y1="2280" x2="439.502" y2="-0.000244162" stroke="black"/>
<line x1="419.502" y1="2280" x2="419.502" y2="-0.000244162" stroke="black"/>
<line x1="399.502" y1="2280" x2="399.502" y2="-0.000244162" stroke="black"/>
<line x1="379.502" y1="2280" x2="379.502" y2="-0.000244162" stroke="black"/>
<line x1="359.502" y1="2280" x2="359.502" y2="-0.000244162" stroke="black"/>
<line x1="339.502" y1="2280" x2="339.502" y2="-0.000244162" stroke="black"/>
<line x1="319.501" y1="2280" x2="319.502" y2="-0.000244162" stroke="black"/>
<line x1="299.501" y1="2280" x2="299.502" y2="-0.000244162" stroke="black"/>
<line x1="279.501" y1="2280" x2="279.502" y2="-0.000244162" stroke="black"/>
<line x1="259.501" y1="2280" x2="259.501" y2="-0.000244162" stroke="black"/>
<line x1="239.501" y1="2280" x2="239.501" y2="-0.000244162" stroke="black"/>
<line x1="219.501" y1="2280" x2="219.501" y2="-0.000244162" stroke="black"/>
<line x1="199.501" y1="2280" x2="199.501" y2="-0.000244162" stroke="black"/>
<line x1="179.501" y1="2280" x2="179.501" y2="-0.000244162" stroke="black"/>
<line x1="159.501" y1="2280" x2="159.501" y2="-0.000244162" stroke="black"/>
<line x1="139.5" y1="2280" x2="139.501" y2="-0.000244162" stroke="black"/>
<line x1="119.5" y1="2280" x2="119.501" y2="-0.000244162" stroke="black"/>
<line x1="99.5005" y1="2280" x2="99.5006" y2="-0.000244162" stroke="black"/>
<line x1="79.5002" y1="2280" x2="79.5003" y2="-0.000244162" stroke="black"/>
<line x1="59.5" y1="2280" x2="59.5001" y2="-0.000244162" stroke="black"/>
<line x1="39.5" y1="2280" x2="39.5001" y2="-0.000244162" stroke="black"/>
<line x1="19.5" y1="2280" x2="19.5001" y2="-0.000244162" stroke="black"/>
<line x1="0.00366214" y1="2279.5" x2="720.004" y2="2279.5" stroke="black"/>
<line x1="0.00366214" y1="2259.5" x2="720.004" y2="2259.5" stroke="black"/>
<line x1="0.00366214" y1="2239.5" x2="720.004" y2="2239.5" stroke="black"/>
<line x1="0.00366214" y1="2219.5" x2="720.004" y2="2219.5" stroke="black"/>
<line x1="0.00366214" y1="2199.5" x2="720.004" y2="2199.5" stroke="black"/>
<line x1="0.00366214" y1="2179.5" x2="720.004" y2="2179.5" stroke="black"/>
<line x1="0.00366214" y1="2159.5" x2="720.004" y2="2159.5" stroke="black"/>
<line x1="0.00366214" y1="2139.5" x2="720.004" y2="2139.5" stroke="black"/>
<line x1="0.00366214" y1="2119.5" x2="720.004" y2="2119.5" stroke="black"/>
<line x1="0.00366214" y1="2099.5" x2="720.004" y2="2099.5" stroke="black"/>
<line x1="0.00366214" y1="2079.5" x2="720.004" y2="2079.5" stroke="black"/>
<line x1="0.00366214" y1="2059.5" x2="720.004" y2="2059.5" stroke="black"/>
<line x1="0.00366214" y1="2039.5" x2="720.004" y2="2039.5" stroke="black"/>
<line x1="0.00366214" y1="2019.5" x2="720.004" y2="2019.5" stroke="black"/>
<line x1="0.00366214" y1="1999.5" x2="720.004" y2="1999.5" stroke="black"/>
<line x1="0.00366214" y1="1979.5" x2="720.004" y2="1979.5" stroke="black"/>
<line x1="0.00366214" y1="1959.5" x2="720.004" y2="1959.5" stroke="black"/>
<line x1="0.00366214" y1="1939.5" x2="720.004" y2="1939.5" stroke="black"/>
<line x1="0.00366214" y1="1919.5" x2="720.004" y2="1919.5" stroke="black"/>
<line x1="0.00366214" y1="1899.5" x2="720.004" y2="1899.5" stroke="black"/>
<line x1="0.00366214" y1="1879.5" x2="720.004" y2="1879.5" stroke="black"/>
<line x1="0.00366214" y1="1859.5" x2="720.004" y2="1859.5" stroke="black"/>
<line x1="0.00366214" y1="1839.5" x2="720.004" y2="1839.5" stroke="black"/>
<line x1="0.00366214" y1="1819.5" x2="720.004" y2="1819.5" stroke="black"/>
<line x1="0.00366214" y1="1799.5" x2="720.004" y2="1799.5" stroke="black"/>
<line x1="0.00366214" y1="1779.5" x2="720.004" y2="1779.5" stroke="black"/>
<line x1="0.00366214" y1="1759.5" x2="720.004" y2="1759.5" stroke="black"/>
<line x1="0.00366214" y1="1739.5" x2="720.004" y2="1739.5" stroke="black"/>
<line x1="0.00366214" y1="1719.5" x2="720.004" y2="1719.5" stroke="black"/>
<line x1="0.00366214" y1="1699.5" x2="720.004" y2="1699.5" stroke="black"/>
<line x1="0.00366214" y1="1679.5" x2="720.004" y2="1679.5" stroke="black"/>
<line x1="0.00366214" y1="1659.5" x2="720.004" y2="1659.5" stroke="black"/>
<line x1="0.00366214" y1="1639.5" x2="720.004" y2="1639.5" stroke="black"/>
<line x1="0.00366214" y1="1619.5" x2="720.004" y2="1619.5" stroke="black"/>
<line x1="0.00366214" y1="1599.5" x2="720.004" y2="1599.5" stroke="black"/>
<line x1="0.00366214" y1="1579.5" x2="720.004" y2="1579.5" stroke="black"/>
<line x1="0.00366214" y1="1559.5" x2="720.004" y2="1559.5" stroke="black"/>
<line x1="0.00366214" y1="1539.5" x2="720.004" y2="1539.5" stroke="black"/>
<line x1="0.00366214" y1="1519.5" x2="720.004" y2="1519.5" stroke="black"/>
<line x1="0.00366214" y1="1499.5" x2="720.004" y2="1499.5" stroke="black"/>
<line x1="0.00366214" y1="1479.5" x2="720.004" y2="1479.5" stroke="black"/>
<line x1="0.00366214" y1="1459.5" x2="720.004" y2="1459.5" stroke="black"/>
<line x1="0.00366214" y1="1439.5" x2="720.004" y2="1439.5" stroke="black"/>
<line x1="0.00366214" y1="1419.5" x2="720.004" y2="1419.5" stroke="black"/>
<line x1="0.00366214" y1="1399.5" x2="720.004" y2="1399.5" stroke="black"/>
<line x1="0.00366214" y1="1379.5" x2="720.004" y2="1379.5" stroke="black"/>
<line x1="0.00366214" y1="1359.5" x2="720.004" y2="1359.5" stroke="black"/>
<line x1="0.00366214" y1="1339.5" x2="720.004" y2="1339.5" stroke="black"/>
<line x1="0.00366214" y1="1319.5" x2="720.004" y2="1319.5" stroke="black"/>
<line x1="0.00366214" y1="1299.5" x2="720.004" y2="1299.5" stroke="black"/>
<line x1="0.00366214" y1="1279.5" x2="720.004" y2="1279.5" stroke="black"/>
<line x1="0.00366214" y1="1259.5" x2="720.004" y2="1259.5" stroke="black"/>
<line x1="0.00366214" y1="1239.5" x2="720.004" y2="1239.5" stroke="black"/>
<line x1="0.00366214" y1="1219.5" x2="720.004" y2="1219.5" stroke="black"/>
<line x1="0.00366214" y1="1199.5" x2="720.004" y2="1199.5" stroke="black"/>
<line x1="0.00366214" y1="1179.5" x2="720.004" y2="1179.5" stroke="black"/>
<line x1="0.00366214" y1="1159.5" x2="720.004" y2="1159.5" stroke="black"/>
<line x1="0.00366214" y1="1139.5" x2="720.004" y2="1139.5" stroke="black"/>
<line x1="0.00366214" y1="1119.5" x2="720.004" y2="1119.5" stroke="black"/>
<line x1="0.00366214" y1="1099.5" x2="720.004" y2="1099.5" stroke="black"/>
<line x1="0.00366214" y1="1079.5" x2="720.004" y2="1079.5" stroke="black"/>
<line x1="0.00366214" y1="1059.5" x2="720.004" y2="1059.5" stroke="black"/>
<line x1="0.00366214" y1="1039.49" x2="720.004" y2="1039.49" stroke="black"/>
<line x1="0.00366214" y1="1019.49" x2="720.004" y2="1019.49" stroke="black"/>
<line x1="0.00366214" y1="999.495" x2="720.004" y2="999.495" stroke="black"/>
<line x1="0.00366214" y1="979.495" x2="720.004" y2="979.495" stroke="black"/>
<line x1="0.00366214" y1="959.494" x2="720.004" y2="959.494" stroke="black"/>
<line x1="0.00366214" y1="939.494" x2="720.004" y2="939.494" stroke="black"/>
<line x1="0.00366214" y1="919.494" x2="720.004" y2="919.494" stroke="black"/>
<line x1="0.00366214" y1="899.494" x2="720.004" y2="899.494" stroke="black"/>
<line x1="0.00366214" y1="879.494" x2="720.004" y2="879.494" stroke="black"/>
<line x1="0.00366214" y1="859.494" x2="720.004" y2="859.494" stroke="black"/>
<line x1="0.00366214" y1="839.494" x2="720.004" y2="839.494" stroke="black"/>
<line x1="0.00366214" y1="819.494" x2="720.004" y2="819.494" stroke="black"/>
<line x1="0.00366214" y1="799.493" x2="720.004" y2="799.493" stroke="black"/>
<line x1="0.00366214" y1="779.493" x2="720.004" y2="779.493" stroke="black"/>
<line x1="0.00366214" y1="759.493" x2="720.004" y2="759.493" stroke="black"/>
<line x1="0.00366214" y1="739.493" x2="720.004" y2="739.493" stroke="black"/>
<line x1="0.00366214" y1="719.493" x2="720.004" y2="719.493" stroke="black"/>
<line x1="0.00366214" y1="699.493" x2="720.004" y2="699.493" stroke="black"/>
<line x1="0.00366214" y1="679.493" x2="720.004" y2="679.493" stroke="black"/>
<line x1="0.00366214" y1="659.493" x2="720.004" y2="659.493" stroke="black"/>
<line x1="0.00366214" y1="639.492" x2="720.004" y2="639.492" stroke="black"/>
<line x1="0.00366214" y1="619.492" x2="720.004" y2="619.492" stroke="black"/>
<line x1="0.00366214" y1="599.492" x2="720.004" y2="599.492" stroke="black"/>
<line x1="0.00366214" y1="579.492" x2="720.004" y2="579.492" stroke="black"/>
<line x1="0.00366214" y1="559.492" x2="720.004" y2="559.492" stroke="black"/>
<line x1="0.00366214" y1="539.492" x2="720.004" y2="539.492" stroke="black"/>
<line x1="0.00366214" y1="519.492" x2="720.004" y2="519.492" stroke="black"/>
<line x1="0.00366214" y1="499.492" x2="720.004" y2="499.492" stroke="black"/>
<line x1="0.00366214" y1="479.491" x2="720.004" y2="479.492" stroke="black"/>
<line x1="0.00366214" y1="459.491" x2="720.004" y2="459.491" stroke="black"/>
<line x1="0.00366214" y1="439.491" x2="720.004" y2="439.491" stroke="black"/>
<line x1="0.00366214" y1="419.491" x2="720.004" y2="419.491" stroke="black"/>
<line x1="0.00366214" y1="399.491" x2="720.004" y2="399.491" stroke="black"/>
<line x1="0.00366214" y1="379.491" x2="720.004" y2="379.491" stroke="black"/>
<line x1="0.00366214" y1="359.491" x2="720.004" y2="359.491" stroke="black"/>
<line x1="0.00366214" y1="339.491" x2="720.004" y2="339.491" stroke="black"/>
<line x1="0.00366214" y1="319.49" x2="720.004" y2="319.491" stroke="black"/>
<line x1="0.00366214" y1="299.49" x2="720.004" y2="299.49" stroke="black"/>
<line x1="0.00366214" y1="279.49" x2="720.004" y2="279.49" stroke="black"/>
<line x1="0.00366214" y1="259.49" x2="720.004" y2="259.49" stroke="black"/>
<line x1="0.00366214" y1="239.49" x2="720.004" y2="239.49" stroke="black"/>
<line x1="0.00366214" y1="219.49" x2="720.004" y2="219.49" stroke="black"/>
<line x1="0.00366214" y1="199.49" x2="720.004" y2="199.49" stroke="black"/>
<line x1="0.00366214" y1="179.49" x2="720.004" y2="179.49" stroke="black"/>
<line x1="0.00366214" y1="159.49" x2="720.004" y2="159.49" stroke="black"/>
<line x1="0.00366214" y1="139.49" x2="720.004" y2="139.49" stroke="black"/>
<line x1="0.00366214" y1="119.49" x2="720.004" y2="119.49" stroke="black"/>
<line x1="0.00366214" y1="99.49" x2="720.004" y2="99.4901" stroke="black"/>
<line x1="0.00366214" y1="79.49" x2="720.004" y2="79.4901" stroke="black"/>
<line x1="0.00366214" y1="59.49" x2="720.004" y2="59.4901" stroke="black"/>
<line x1="0.00366214" y1="39.49" x2="720.004" y2="39.4901" stroke="black"/>
<line x1="0.00366214" y1="19.49" x2="720.004" y2="19.4901" stroke="black"/>
</mask>
<g mask="url(#mask0)">
<rect x="720.004" y="2280" width="720" height="2280" transform="rotate(-180 720.004 2280)" fill="url(#paint0_radial)"/>
</g>
</g>
<defs>
<radialGradient id="paint0_radial" cx="0" cy="0" r="1" gradientUnits="userSpaceOnUse" gradientTransform="translate(1345.5 2587.9) rotate(97.6675) scale(1989.89 660.923)">
<stop stop-color="#AFFFE2" stop-opacity="0.2"/>
<stop offset="0.68173" stop-color="#AFFFE2" stop-opacity="0.1"/>
<stop offset="1" stop-color="#AFFFE2" stop-opacity="0"/>
</radialGradient>
</defs>
</svg>
