<svg width="18" height="14" viewBox="0 0 18 14" fill="none" xmlns="http://www.w3.org/2000/svg">
<path d="M17.3333 4.17325V10.9583C17.3333 11.65 17.0686 12.3156 16.5936 12.8184C16.1185 13.3213 15.4689 13.6233 14.7783 13.6624L14.6249 13.6666H3.37494C2.68316 13.6666 2.01758 13.402 1.51475 12.9269C1.01191 12.4518 0.70994 11.8023 0.670775 11.1116L0.666608 10.9583V4.17325L8.70994 8.38658C8.79942 8.43345 8.89893 8.45794 8.99994 8.45794C9.10096 8.45794 9.20046 8.43345 9.28994 8.38658L17.3333 4.17325ZM3.37494 0.333252H14.6249C15.2963 0.333171 15.9437 0.582415 16.4416 1.03264C16.9396 1.48287 17.2526 2.10199 17.3199 2.76992L8.99994 7.12825L0.679941 2.76992C0.744544 2.12851 1.03582 1.53118 1.5014 1.0853C1.96698 0.639426 2.57634 0.374241 3.21994 0.337419L3.37494 0.333252H14.6249H3.37494Z" fill="white"/>
</svg>
