<svg width="157" height="33" viewBox="0 0 157 33" fill="none" xmlns="http://www.w3.org/2000/svg">
<path d="M103.317 25.802C107.497 25.802 110.081 23.864 111.107 22.344L106.699 18.164C106.129 19 105.065 19.76 103.621 19.76C101.683 19.76 100.011 18.506 100.011 16.15C100.011 13.794 101.683 12.578 103.621 12.578C105.065 12.578 106.129 13.262 106.699 14.136L111.107 9.99401C110.081 8.43601 107.497 6.53601 103.317 6.53601C97.503 6.53601 93.019 10.336 93.019 16.15C93.019 22.002 97.503 25.802 103.317 25.802Z" fill="white"/>
<path d="M132.575 25.346V6.99201H125.735V18.316C125.165 18.962 124.367 19.76 122.847 19.76C121.175 19.76 120.187 19.038 120.187 17.176V6.99201H113.347V20.102C113.347 23.256 115.171 25.802 119.427 25.802C122.657 25.802 124.671 24.472 125.735 23.294V25.346H132.575Z" fill="white"/>
<path d="M148.4 25.802C152.96 25.802 156.456 22.458 156.456 16.15C156.456 9.88001 152.96 6.53601 148.4 6.53601C146.5 6.53601 144.714 7.18201 143.232 8.93001V6.99201H136.392V32.338H143.232V23.408C144.752 25.156 146.5 25.802 148.4 25.802ZM146.044 19.76C145.17 19.76 143.84 19.266 143.232 18.506V13.832C143.878 13.034 145.17 12.578 146.044 12.578C147.868 12.578 149.464 13.87 149.464 16.15C149.464 18.468 147.868 19.76 146.044 19.76Z" fill="white"/>
<path d="M15.96 25.346V19.418H9.196L15.808 11.78V6.992H0V12.92H6.46L0 20.33V25.346H15.96Z" fill="#EEDC00"/>
<path d="M38.3925 25.346V12.312C38.3925 9.12 36.5305 6.536 32.2745 6.536C29.0445 6.536 27.0305 7.866 25.9665 9.082V6.992H19.1265V25.346H25.9665V14.022C26.5365 13.376 27.3345 12.578 28.8925 12.578C30.5265 12.578 31.5525 13.3 31.5525 15.2V25.346H38.3925Z" fill="#EEDC00"/>
<path d="M59.6505 25.346V14.25C59.6505 8.132 55.2045 6.536 50.6445 6.536C47.8705 6.536 44.4505 7.334 41.9805 9.31L44.2985 13.528C45.7425 12.426 47.6805 11.742 49.3905 11.742C51.6325 11.742 52.8105 12.73 52.8105 14.022V15.922C51.8225 14.668 49.6565 13.908 47.2625 13.908C44.5265 13.908 40.9545 15.2 40.9545 19.76C40.9545 23.94 44.5265 25.802 47.2625 25.802C49.5425 25.802 51.7845 24.89 52.8105 23.598V25.346H59.6505ZM50.1125 21.356C48.9725 21.356 47.7185 21.014 47.7185 19.874C47.7185 18.734 48.9725 18.354 50.1125 18.354C51.1765 18.354 52.3545 18.696 52.8105 19.342V20.368C52.3545 21.014 51.1765 21.356 50.1125 21.356Z" fill="#EEDC00"/>
<path d="M83.1571 25.346L76.4311 15.352L82.7391 6.992H74.4931L70.2751 13.528V0H63.4351V25.346H70.2751V21.204L71.6051 19.418L74.7591 25.346H83.1571Z" fill="#EEDC00"/>
</svg>
