<svg width="208" height="208" viewBox="0 0 208 208" fill="none" xmlns="http://www.w3.org/2000/svg">
<path d="M143.7 43.7V44.2H144.2H164.3C166.196 44.2 167.738 44.8299 168.804 45.8961C169.87 46.9622 170.5 48.5036 170.5 50.4V66.48C170.5 81.6326 159.303 94.1559 144.135 96.1342L143.7 96.191V96.63V97.3C143.7 116.493 130.465 132.372 112.602 136.342L112.06 136.462L112.236 136.988L116.926 151.058L117.04 151.4H117.4H132.81C135.267 151.4 137.742 153.26 138.355 155.711L138.36 155.733L138.368 155.754L143.497 170.5H64.5033L69.6322 155.754L69.6396 155.733L69.6451 155.711C70.2579 153.26 72.7333 151.4 75.19 151.4H90.6H90.9604L91.0743 151.058L95.7643 136.988L95.9397 136.462L95.3985 136.342C77.5347 132.372 64.3 116.493 64.3 97.3V96.63V96.191L63.8647 96.1342C48.6975 94.1559 37.5 81.6326 37.5 66.48V50.4C37.5 48.5036 38.1299 46.9622 39.1961 45.8961C40.2622 44.8299 41.8036 44.2 43.7 44.2H63.8H64.3V43.7V37.5H143.7V43.7Z" stroke="white" stroke-opacity="0.5"/>
<path d="M153.9 28.4V28.9H154.4H179.6C182.006 28.9 183.973 29.6999 185.336 31.0636C186.7 32.4272 187.5 34.3936 187.5 36.8V56.96C187.5 76.0226 173.413 91.7759 154.335 94.2642L153.9 94.321V94.76V95.6C153.9 119.723 137.265 139.682 114.812 144.672L114.27 144.792L114.446 145.318L120.326 162.958L120.44 163.3H120.8H140.12C143.257 163.3 146.412 165.67 147.195 168.801L147.2 168.823L147.208 168.844L153.697 187.5H54.3033L60.7922 168.844L60.7996 168.823L60.8051 168.801C61.588 165.67 64.7433 163.3 67.88 163.3H87.2H87.5604L87.6743 162.958L93.5543 145.318L93.7297 144.792L93.1885 144.672C70.7347 139.682 54.1 119.723 54.1 95.6V94.76V94.321L53.6647 94.2642C34.5875 91.7759 20.5 76.0226 20.5 56.96V36.8C20.5 34.3936 21.2999 32.4272 22.6636 31.0636C24.0272 29.6999 25.9936 28.9 28.4 28.9H53.6H54.1V28.4V20.5H153.9V28.4Z" stroke="white" stroke-opacity="0.3"/>
<path d="M165.9 10.4V10.9H166.4H197.6C200.606 10.9 203.073 11.8999 204.786 13.6136C206.5 15.3272 207.5 17.7936 207.5 20.8V45.76C207.5 69.4226 190.013 88.9759 166.335 92.0642L165.9 92.121V92.56V93.6C165.9 123.523 145.265 148.282 117.412 154.472L116.87 154.592L117.046 155.118L124.326 176.958L124.44 177.3H124.8H148.72C152.657 177.3 156.612 180.27 157.595 184.201L157.6 184.223L157.608 184.244L165.697 207.5H42.3033L50.3923 184.244L50.3996 184.223L50.4051 184.201C51.388 180.27 55.3433 177.3 59.28 177.3H83.2H83.5604L83.6743 176.958L90.9543 155.118L91.1297 154.592L90.5885 154.472C62.7347 148.282 42.1 123.523 42.1 93.6V92.56V92.121L41.6647 92.0642C17.9875 88.9759 0.5 69.4226 0.5 45.76V20.8C0.5 17.7936 1.49994 15.3272 3.21355 13.6136C4.92716 11.8999 7.39362 10.9 10.4 10.9H41.6H42.1V10.4V0.5H165.9V10.4Z" stroke="white" stroke-opacity="0.1"/>
<path d="M149 59H134V54H74V59H59C56 59 54 61 54 64V76C54 87.5 62.5 97 74 98.5V99C74 113.5 84 125.5 97.5 128.5L94 139H82.5C80.5 139 78.5 140.5 78 142.5L74 154H134L130 142.5C129.5 140.5 127.5 139 125.5 139H114L110.5 128.5C124 125.5 134 113.5 134 99V98.5C145.5 97 154 87.5 154 76V64C154 61 152 59 149 59ZM74 88.5C68.5 87 64 82 64 76V69H74V88.5ZM114 104L104 98.5L94 104L96.5 94L89 84H99.5L104 74L108.5 84H119L111.5 94L114 104ZM144 76C144 82 139.5 87.5 134 88.5V69H144V76Z" fill="#EEDC00"/>
</svg>
