<svg width="41" height="40" fill="none" xmlns="http://www.w3.org/2000/svg">
<path d="M0.499025 25.1735L18.2792 25.1735C19.2589 25.1846 20.2311 25.0013 21.1394 24.6343C22.0478 24.2673 22.8742 23.7238 23.5709 23.0353C24.2676 22.3467 24.8207 21.5269 25.1982 20.6233C25.5756 19.7196 25.77 18.75 25.7699 17.7708L25.7699 6.43829e-07L40.499 0L40.499 17.7708C40.5018 20.689 39.9291 23.5791 38.8137 26.276C37.6982 28.9728 36.062 31.4235 33.9984 33.4879C31.9348 35.5524 29.4844 37.1901 26.7872 38.3075C24.09 39.4249 21.1989 40 18.2792 40L0.499025 40L0.499025 25.1735Z" fill="#E0CF01"/>
</svg>
