<svg width="320" height="215" viewBox="0 0 320 215" fill="none" xmlns="http://www.w3.org/2000/svg">
<g opacity="0.4">
<mask id="mask0" mask-type="alpha" maskUnits="userSpaceOnUse" x="-227" y="-357" width="624" height="990">
<line x1="15.7778" y1="-356.712" x2="15.7778" y2="632.298" stroke="black"/>
<line x1="33.0835" y1="-356.712" x2="33.0835" y2="632.298" stroke="black"/>
<line x1="50.3887" y1="-356.712" x2="50.3886" y2="632.298" stroke="black"/>
<line x1="67.6943" y1="-356.712" x2="67.6943" y2="632.298" stroke="black"/>
<line x1="85" y1="-356.712" x2="85" y2="632.298" stroke="black"/>
<line x1="102.306" y1="-356.712" x2="102.306" y2="632.298" stroke="black"/>
<line x1="119.611" y1="-356.712" x2="119.611" y2="632.298" stroke="black"/>
<line x1="136.917" y1="-356.712" x2="136.916" y2="632.298" stroke="black"/>
<line x1="154.222" y1="-356.712" x2="154.222" y2="632.298" stroke="black"/>
<line x1="171.528" y1="-356.712" x2="171.528" y2="632.298" stroke="black"/>
<line x1="188.833" y1="-356.712" x2="188.833" y2="632.298" stroke="black"/>
<line x1="206.139" y1="-356.712" x2="206.139" y2="632.298" stroke="black"/>
<line x1="223.444" y1="-356.712" x2="223.444" y2="632.298" stroke="black"/>
<line x1="240.75" y1="-356.712" x2="240.75" y2="632.298" stroke="black"/>
<line x1="258.056" y1="-356.712" x2="258.056" y2="632.298" stroke="black"/>
<line x1="275.361" y1="-356.712" x2="275.361" y2="632.298" stroke="black"/>
<line x1="292.667" y1="-356.712" x2="292.666" y2="632.298" stroke="black"/>
<line x1="309.972" y1="-356.712" x2="309.972" y2="632.298" stroke="black"/>
<line x1="395.999" y1="7.20459" x2="-227" y2="7.20454" stroke="black"/>
<line x1="395.999" y1="24.51" x2="-227" y2="24.51" stroke="black"/>
<line x1="395.999" y1="41.8154" x2="-227" y2="41.8154" stroke="black"/>
<line x1="395.999" y1="59.1211" x2="-227" y2="59.121" stroke="black"/>
<line x1="395.999" y1="76.4268" x2="-227" y2="76.4267" stroke="black"/>
<line x1="395.999" y1="93.7322" x2="-227" y2="93.7321" stroke="black"/>
<line x1="395.999" y1="111.038" x2="-227" y2="111.038" stroke="black"/>
<line x1="395.999" y1="128.343" x2="-227" y2="128.343" stroke="black"/>
<line x1="395.999" y1="145.649" x2="-227" y2="145.649" stroke="black"/>
<line x1="395.999" y1="162.954" x2="-227" y2="162.954" stroke="black"/>
<line x1="395.999" y1="180.26" x2="-227" y2="180.26" stroke="black"/>
<line x1="395.999" y1="197.565" x2="-227" y2="197.565" stroke="black"/>
<line x1="395.999" y1="214.871" x2="-227" y2="214.871" stroke="black"/>
</mask>
<g mask="url(#mask0)">
<rect opacity="0.6" x="-2" y="-1" width="262" height="302" fill="url(#paint0_radial)"/>
</g>
</g>
<defs>
<radialGradient id="paint0_radial" cx="0" cy="0" r="1" gradientUnits="userSpaceOnUse" gradientTransform="translate(42.6763 8.33454) rotate(76.0459) scale(251.21 211.712)">
<stop stop-color="#FF6BC5" stop-opacity="0.38"/>
<stop offset="1" stop-color="#FF6BC5" stop-opacity="0.06"/>
</radialGradient>
</defs>
</svg>
