<svg width="40" height="40" viewBox="0 0 40 40" fill="none" xmlns="http://www.w3.org/2000/svg">
<path d="M14.8265 40L14.8265 22.2199C14.8154 21.2402 14.9987 20.268 15.3657 19.3596C15.7327 18.4513 16.2762 17.6248 16.9647 16.9281C17.6533 16.2314 18.4731 15.6783 19.3767 15.3008C20.2804 14.9234 21.25 14.729 22.2292 14.7291L40 14.7291L40 9.96361e-06L22.2292 8.41004e-06C19.311 -0.00275674 16.4209 0.569945 13.724 1.68536C11.0272 2.80078 8.57652 4.43704 6.51207 6.50062C4.44762 8.5642 2.80987 11.0146 1.69248 13.7118C0.575102 16.409 -1.68727e-06 19.3001 -1.94252e-06 22.2199L-3.49691e-06 40L14.8265 40Z" fill="#E0CF01"/>
</svg>
