<svg width="720" height="2280" viewBox="0 0 720 2280" fill="none" xmlns="http://www.w3.org/2000/svg">
<g opacity="0.4">
<mask id="mask0" mask-type="alpha" maskUnits="userSpaceOnUse" x="0" y="0" width="722" height="2282">
<line x1="0.500122" y1="0.000244162" x2="0.500022" y2="2280" stroke="black"/>
<line x1="20.5002" y1="0.000244162" x2="20.5001" y2="2280" stroke="black"/>
<line x1="40.5002" y1="0.000244162" x2="40.5001" y2="2280" stroke="black"/>
<line x1="60.5004" y1="0.000244162" x2="60.5003" y2="2280" stroke="black"/>
<line x1="80.5005" y1="0.000244162" x2="80.5004" y2="2280" stroke="black"/>
<line x1="100.501" y1="0.000244162" x2="100.501" y2="2280" stroke="black"/>
<line x1="120.501" y1="0.000244162" x2="120.501" y2="2280" stroke="black"/>
<line x1="140.501" y1="0.000244162" x2="140.501" y2="2280" stroke="black"/>
<line x1="160.501" y1="0.000244162" x2="160.501" y2="2280" stroke="black"/>
<line x1="180.501" y1="0.000244162" x2="180.501" y2="2280" stroke="black"/>
<line x1="200.501" y1="0.000244162" x2="200.501" y2="2280" stroke="black"/>
<line x1="220.501" y1="0.000244162" x2="220.501" y2="2280" stroke="black"/>
<line x1="240.501" y1="0.000244162" x2="240.501" y2="2280" stroke="black"/>
<line x1="260.501" y1="0.000244162" x2="260.501" y2="2280" stroke="black"/>
<line x1="280.501" y1="0.000244162" x2="280.501" y2="2280" stroke="black"/>
<line x1="300.502" y1="0.000244162" x2="300.501" y2="2280" stroke="black"/>
<line x1="320.502" y1="0.000244162" x2="320.502" y2="2280" stroke="black"/>
<line x1="340.502" y1="0.000244162" x2="340.502" y2="2280" stroke="black"/>
<line x1="360.502" y1="0.000244162" x2="360.502" y2="2280" stroke="black"/>
<line x1="380.502" y1="0.000244162" x2="380.502" y2="2280" stroke="black"/>
<line x1="400.502" y1="0.000244162" x2="400.502" y2="2280" stroke="black"/>
<line x1="420.502" y1="0.000244162" x2="420.502" y2="2280" stroke="black"/>
<line x1="440.502" y1="0.000244162" x2="440.502" y2="2280" stroke="black"/>
<line x1="460.502" y1="0.000244162" x2="460.502" y2="2280" stroke="black"/>
<line x1="480.502" y1="0.000244162" x2="480.502" y2="2280" stroke="black"/>
<line x1="500.502" y1="0.000244162" x2="500.502" y2="2280" stroke="black"/>
<line x1="520.503" y1="0.000244162" x2="520.503" y2="2280" stroke="black"/>
<line x1="540.503" y1="0.000244162" x2="540.503" y2="2280" stroke="black"/>
<line x1="560.503" y1="0.000244162" x2="560.503" y2="2280" stroke="black"/>
<line x1="580.503" y1="0.000244162" x2="580.503" y2="2280" stroke="black"/>
<line x1="600.503" y1="0.000244162" x2="600.503" y2="2280" stroke="black"/>
<line x1="620.503" y1="0.000244162" x2="620.503" y2="2280" stroke="black"/>
<line x1="640.503" y1="0.000244162" x2="640.503" y2="2280" stroke="black"/>
<line x1="660.503" y1="0.000244162" x2="660.503" y2="2280" stroke="black"/>
<line x1="680.504" y1="0.000244162" x2="680.504" y2="2280" stroke="black"/>
<line x1="700.504" y1="0.000244162" x2="700.504" y2="2280" stroke="black"/>
<line x1="720" y1="0.5" x2="-3.30043e-08" y2="0.499917" stroke="black"/>
<line x1="720" y1="20.5002" x2="-3.30043e-08" y2="20.5002" stroke="black"/>
<line x1="720" y1="40.5002" x2="-3.30043e-08" y2="40.5002" stroke="black"/>
<line x1="720" y1="60.5002" x2="-3.30043e-08" y2="60.5002" stroke="black"/>
<line x1="720" y1="80.5005" x2="-3.30043e-08" y2="80.5004" stroke="black"/>
<line x1="720" y1="100.5" x2="-3.30043e-08" y2="100.5" stroke="black"/>
<line x1="720" y1="120.5" x2="-3.30043e-08" y2="120.5" stroke="black"/>
<line x1="720" y1="140.501" x2="-3.30043e-08" y2="140.501" stroke="black"/>
<line x1="720" y1="160.501" x2="-3.30043e-08" y2="160.501" stroke="black"/>
<line x1="720" y1="180.501" x2="-3.30043e-08" y2="180.501" stroke="black"/>
<line x1="720" y1="200.501" x2="-3.30043e-08" y2="200.501" stroke="black"/>
<line x1="720" y1="220.501" x2="-3.30043e-08" y2="220.501" stroke="black"/>
<line x1="720" y1="240.501" x2="-3.30043e-08" y2="240.501" stroke="black"/>
<line x1="720" y1="260.501" x2="-3.30043e-08" y2="260.501" stroke="black"/>
<line x1="720" y1="280.501" x2="-3.30043e-08" y2="280.501" stroke="black"/>
<line x1="720" y1="300.501" x2="-3.30043e-08" y2="300.501" stroke="black"/>
<line x1="720" y1="320.501" x2="-3.30043e-08" y2="320.501" stroke="black"/>
<line x1="720" y1="340.501" x2="-3.30043e-08" y2="340.501" stroke="black"/>
<line x1="720" y1="360.501" x2="-3.30043e-08" y2="360.501" stroke="black"/>
<line x1="720" y1="380.502" x2="-3.30043e-08" y2="380.502" stroke="black"/>
<line x1="720" y1="400.502" x2="-3.30043e-08" y2="400.502" stroke="black"/>
<line x1="720" y1="420.502" x2="-3.30043e-08" y2="420.502" stroke="black"/>
<line x1="720" y1="440.502" x2="-3.30043e-08" y2="440.502" stroke="black"/>
<line x1="720" y1="460.502" x2="-3.30043e-08" y2="460.502" stroke="black"/>
<line x1="720" y1="480.502" x2="-3.30043e-08" y2="480.502" stroke="black"/>
<line x1="720" y1="500.502" x2="-3.30043e-08" y2="500.502" stroke="black"/>
<line x1="720" y1="520.502" x2="-3.30043e-08" y2="520.502" stroke="black"/>
<line x1="720" y1="540.502" x2="-3.30043e-08" y2="540.502" stroke="black"/>
<line x1="720" y1="560.502" x2="-3.30043e-08" y2="560.502" stroke="black"/>
<line x1="720" y1="580.502" x2="-3.30043e-08" y2="580.502" stroke="black"/>
<line x1="720" y1="600.502" x2="-3.30043e-08" y2="600.502" stroke="black"/>
<line x1="720" y1="620.502" x2="-3.30043e-08" y2="620.502" stroke="black"/>
<line x1="720" y1="640.503" x2="-3.30043e-08" y2="640.503" stroke="black"/>
<line x1="720" y1="660.503" x2="-3.30043e-08" y2="660.503" stroke="black"/>
<line x1="720" y1="680.503" x2="-3.30043e-08" y2="680.503" stroke="black"/>
<line x1="720" y1="700.503" x2="-3.30043e-08" y2="700.503" stroke="black"/>
<line x1="720" y1="720.503" x2="-3.30043e-08" y2="720.503" stroke="black"/>
<line x1="720" y1="740.503" x2="-3.30043e-08" y2="740.503" stroke="black"/>
<line x1="720" y1="760.503" x2="-3.30043e-08" y2="760.503" stroke="black"/>
<line x1="720" y1="780.503" x2="-3.30043e-08" y2="780.503" stroke="black"/>
<line x1="720" y1="800.503" x2="-3.30043e-08" y2="800.503" stroke="black"/>
<line x1="720" y1="820.503" x2="-3.30043e-08" y2="820.503" stroke="black"/>
<line x1="720" y1="840.503" x2="-3.30043e-08" y2="840.503" stroke="black"/>
<line x1="720" y1="860.503" x2="-3.30043e-08" y2="860.503" stroke="black"/>
<line x1="720" y1="880.503" x2="-3.30043e-08" y2="880.503" stroke="black"/>
<line x1="720" y1="900.503" x2="-3.30043e-08" y2="900.503" stroke="black"/>
<line x1="720" y1="920.503" x2="-3.30043e-08" y2="920.503" stroke="black"/>
<line x1="720" y1="940.503" x2="-3.30043e-08" y2="940.503" stroke="black"/>
<line x1="720" y1="960.504" x2="-3.30043e-08" y2="960.504" stroke="black"/>
<line x1="720" y1="980.504" x2="-3.30043e-08" y2="980.504" stroke="black"/>
<line x1="720" y1="1000.5" x2="-3.30043e-08" y2="1000.5" stroke="black"/>
<line x1="720" y1="1020.5" x2="-3.30043e-08" y2="1020.5" stroke="black"/>
<line x1="720" y1="1040.5" x2="-3.30043e-08" y2="1040.5" stroke="black"/>
<line x1="720" y1="1060.5" x2="-3.30043e-08" y2="1060.5" stroke="black"/>
<line x1="720" y1="1080.5" x2="-3.30043e-08" y2="1080.5" stroke="black"/>
<line x1="720" y1="1100.5" x2="-3.30043e-08" y2="1100.5" stroke="black"/>
<line x1="720" y1="1120.5" x2="-3.30043e-08" y2="1120.5" stroke="black"/>
<line x1="720" y1="1140.5" x2="-3.30043e-08" y2="1140.5" stroke="black"/>
<line x1="720" y1="1160.5" x2="-3.30043e-08" y2="1160.5" stroke="black"/>
<line x1="720" y1="1180.5" x2="-3.30043e-08" y2="1180.5" stroke="black"/>
<line x1="720" y1="1200.5" x2="-3.30043e-08" y2="1200.5" stroke="black"/>
<line x1="720" y1="1220.51" x2="-3.30043e-08" y2="1220.5" stroke="black"/>
<line x1="720" y1="1240.51" x2="-3.30043e-08" y2="1240.51" stroke="black"/>
<line x1="720" y1="1260.51" x2="-3.30043e-08" y2="1260.51" stroke="black"/>
<line x1="720" y1="1280.51" x2="-3.30043e-08" y2="1280.51" stroke="black"/>
<line x1="720" y1="1300.51" x2="-3.30043e-08" y2="1300.51" stroke="black"/>
<line x1="720" y1="1320.51" x2="-3.30043e-08" y2="1320.51" stroke="black"/>
<line x1="720" y1="1340.51" x2="-3.30043e-08" y2="1340.51" stroke="black"/>
<line x1="720" y1="1360.51" x2="-3.30043e-08" y2="1360.51" stroke="black"/>
<line x1="720" y1="1380.51" x2="-3.30043e-08" y2="1380.51" stroke="black"/>
<line x1="720" y1="1400.51" x2="-3.30043e-08" y2="1400.51" stroke="black"/>
<line x1="720" y1="1420.51" x2="-3.30043e-08" y2="1420.51" stroke="black"/>
<line x1="720" y1="1440.51" x2="-3.30043e-08" y2="1440.51" stroke="black"/>
<line x1="720" y1="1460.51" x2="-3.30043e-08" y2="1460.51" stroke="black"/>
<line x1="720" y1="1480.51" x2="-3.30043e-08" y2="1480.51" stroke="black"/>
<line x1="720" y1="1500.51" x2="-3.30043e-08" y2="1500.51" stroke="black"/>
<line x1="720" y1="1520.51" x2="-3.30043e-08" y2="1520.51" stroke="black"/>
<line x1="720" y1="1540.51" x2="-3.30043e-08" y2="1540.51" stroke="black"/>
<line x1="720" y1="1560.51" x2="-3.30043e-08" y2="1560.51" stroke="black"/>
<line x1="720" y1="1580.51" x2="-3.30043e-08" y2="1580.51" stroke="black"/>
<line x1="720" y1="1600.51" x2="-3.30043e-08" y2="1600.51" stroke="black"/>
<line x1="720" y1="1620.51" x2="-3.30043e-08" y2="1620.51" stroke="black"/>
<line x1="720" y1="1640.51" x2="-3.30043e-08" y2="1640.51" stroke="black"/>
<line x1="720" y1="1660.51" x2="-3.30043e-08" y2="1660.51" stroke="black"/>
<line x1="720" y1="1680.51" x2="-3.30043e-08" y2="1680.51" stroke="black"/>
<line x1="720" y1="1700.51" x2="-3.30043e-08" y2="1700.51" stroke="black"/>
<line x1="720" y1="1720.51" x2="-3.30043e-08" y2="1720.51" stroke="black"/>
<line x1="720" y1="1740.51" x2="-3.30043e-08" y2="1740.51" stroke="black"/>
<line x1="720" y1="1760.51" x2="-3.30043e-08" y2="1760.51" stroke="black"/>
<line x1="720" y1="1780.51" x2="-3.30043e-08" y2="1780.51" stroke="black"/>
<line x1="720" y1="1800.51" x2="-3.30043e-08" y2="1800.51" stroke="black"/>
<line x1="720" y1="1820.51" x2="-3.30043e-08" y2="1820.51" stroke="black"/>
<line x1="720" y1="1840.51" x2="-3.30043e-08" y2="1840.51" stroke="black"/>
<line x1="720" y1="1860.51" x2="-3.30043e-08" y2="1860.51" stroke="black"/>
<line x1="720" y1="1880.51" x2="-3.30043e-08" y2="1880.51" stroke="black"/>
<line x1="720" y1="1900.51" x2="-3.30043e-08" y2="1900.51" stroke="black"/>
<line x1="720" y1="1920.51" x2="-3.30043e-08" y2="1920.51" stroke="black"/>
<line x1="720" y1="1940.51" x2="-3.30043e-08" y2="1940.51" stroke="black"/>
<line x1="720" y1="1960.51" x2="-3.30043e-08" y2="1960.51" stroke="black"/>
<line x1="720" y1="1980.51" x2="-3.30043e-08" y2="1980.51" stroke="black"/>
<line x1="720" y1="2000.51" x2="-3.30043e-08" y2="2000.51" stroke="black"/>
<line x1="720" y1="2020.51" x2="-3.30043e-08" y2="2020.51" stroke="black"/>
<line x1="720" y1="2040.51" x2="-3.30043e-08" y2="2040.51" stroke="black"/>
<line x1="720" y1="2060.51" x2="-3.30043e-08" y2="2060.51" stroke="black"/>
<line x1="720" y1="2080.51" x2="-3.30043e-08" y2="2080.51" stroke="black"/>
<line x1="720" y1="2100.51" x2="-3.30043e-08" y2="2100.51" stroke="black"/>
<line x1="720" y1="2120.51" x2="-3.30043e-08" y2="2120.51" stroke="black"/>
<line x1="720" y1="2140.51" x2="-3.30043e-08" y2="2140.51" stroke="black"/>
<line x1="720" y1="2160.51" x2="-3.30043e-08" y2="2160.51" stroke="black"/>
<line x1="720" y1="2180.51" x2="-3.30043e-08" y2="2180.51" stroke="black"/>
<line x1="720" y1="2200.51" x2="-3.30043e-08" y2="2200.51" stroke="black"/>
<line x1="720" y1="2220.51" x2="-3.30043e-08" y2="2220.51" stroke="black"/>
<line x1="720" y1="2240.51" x2="-3.30043e-08" y2="2240.51" stroke="black"/>
<line x1="720" y1="2260.51" x2="-3.30043e-08" y2="2260.51" stroke="black"/>
</mask>
<g mask="url(#mask0)">
<rect x="-498" width="1218" height="2280" fill="url(#paint0_radial)"/>
</g>
</g>
<defs>
<radialGradient id="paint0_radial" cx="0" cy="0" r="1" gradientUnits="userSpaceOnUse" gradientTransform="translate(560.137 307.901) rotate(102.83) scale(2022.6 1099.98)">
<stop stop-color="#AFFFE2" stop-opacity="0.2"/>
<stop offset="0.68173" stop-color="#AFFFE2" stop-opacity="0.1"/>
<stop offset="1" stop-color="#AFFFE2" stop-opacity="0"/>
</radialGradient>
</defs>
</svg>
