<svg width="1440" height="2286" viewBox="0 0 1440 2286" fill="none" xmlns="http://www.w3.org/2000/svg">
<g opacity="0.4">
<mask id="mask0" mask-type="alpha" maskUnits="userSpaceOnUse" x="0" y="-1" width="1442" height="2287">
<line x1="0.500092" y1="2.18557e-08" x2="0.499992" y2="2286" stroke="black"/>
<line x1="40.5002" y1="2.18557e-08" x2="40.5001" y2="2286" stroke="black"/>
<line x1="80.5003" y1="2.18557e-08" x2="80.5002" y2="2286" stroke="black"/>
<line x1="120.5" y1="2.18557e-08" x2="120.5" y2="2286" stroke="black"/>
<line x1="160.5" y1="2.18557e-08" x2="160.5" y2="2286" stroke="black"/>
<line x1="200.501" y1="2.18557e-08" x2="200.501" y2="2286" stroke="black"/>
<line x1="240.501" y1="2.18557e-08" x2="240.501" y2="2286" stroke="black"/>
<line x1="280.501" y1="2.18557e-08" x2="280.501" y2="2286" stroke="black"/>
<line x1="320.501" y1="2.18557e-08" x2="320.501" y2="2286" stroke="black"/>
<line x1="360.501" y1="2.18557e-08" x2="360.501" y2="2286" stroke="black"/>
<line x1="400.501" y1="2.18557e-08" x2="400.501" y2="2286" stroke="black"/>
<line x1="440.501" y1="2.18557e-08" x2="440.501" y2="2286" stroke="black"/>
<line x1="480.501" y1="2.18557e-08" x2="480.501" y2="2286" stroke="black"/>
<line x1="520.501" y1="2.18557e-08" x2="520.501" y2="2286" stroke="black"/>
<line x1="560.502" y1="2.18557e-08" x2="560.501" y2="2286" stroke="black"/>
<line x1="600.502" y1="2.18557e-08" x2="600.502" y2="2286" stroke="black"/>
<line x1="640.502" y1="2.18557e-08" x2="640.502" y2="2286" stroke="black"/>
<line x1="680.502" y1="2.18557e-08" x2="680.502" y2="2286" stroke="black"/>
<line x1="720.502" y1="2.18557e-08" x2="720.502" y2="2286" stroke="black"/>
<line x1="760.502" y1="2.18557e-08" x2="760.502" y2="2286" stroke="black"/>
<line x1="800.502" y1="2.18557e-08" x2="800.502" y2="2286" stroke="black"/>
<line x1="840.502" y1="2.18557e-08" x2="840.502" y2="2286" stroke="black"/>
<line x1="880.503" y1="2.18557e-08" x2="880.502" y2="2286" stroke="black"/>
<line x1="920.503" y1="2.18557e-08" x2="920.503" y2="2286" stroke="black"/>
<line x1="960.503" y1="2.18557e-08" x2="960.503" y2="2286" stroke="black"/>
<line x1="1000.5" y1="2.18557e-08" x2="1000.5" y2="2286" stroke="black"/>
<line x1="1040.5" y1="2.18557e-08" x2="1040.5" y2="2286" stroke="black"/>
<line x1="1080.5" y1="2.18557e-08" x2="1080.5" y2="2286" stroke="black"/>
<line x1="1120.5" y1="2.18557e-08" x2="1120.5" y2="2286" stroke="black"/>
<line x1="1160.5" y1="2.18557e-08" x2="1160.5" y2="2286" stroke="black"/>
<line x1="1200.5" y1="2.18557e-08" x2="1200.5" y2="2286" stroke="black"/>
<line x1="1240.5" y1="2.18557e-08" x2="1240.5" y2="2286" stroke="black"/>
<line x1="1280.5" y1="2.18557e-08" x2="1280.5" y2="2286" stroke="black"/>
<line x1="1320.5" y1="2.18557e-08" x2="1320.5" y2="2286" stroke="black"/>
<line x1="1360.5" y1="2.18557e-08" x2="1360.5" y2="2286" stroke="black"/>
<line x1="1400.5" y1="2.18557e-08" x2="1400.5" y2="2286" stroke="black"/>
<line x1="1440" y1="0.499756" x2="0.000122027" y2="0.49963" stroke="black"/>
<line x1="1440" y1="40.5" x2="0.000122027" y2="40.4999" stroke="black"/>
<line x1="1440" y1="80.5" x2="0.000122027" y2="80.4999" stroke="black"/>
<line x1="1440" y1="120.5" x2="0.000122027" y2="120.5" stroke="black"/>
<line x1="1440" y1="160.5" x2="0.000122027" y2="160.5" stroke="black"/>
<line x1="1440" y1="200.5" x2="0.000122027" y2="200.5" stroke="black"/>
<line x1="1440" y1="240.5" x2="0.000122027" y2="240.5" stroke="black"/>
<line x1="1440" y1="280.5" x2="0.000122027" y2="280.5" stroke="black"/>
<line x1="1440" y1="320.5" x2="0.000122027" y2="320.5" stroke="black"/>
<line x1="1440" y1="360.5" x2="0.000122027" y2="360.5" stroke="black"/>
<line x1="1440" y1="400.5" x2="0.000122027" y2="400.5" stroke="black"/>
<line x1="1440" y1="440.5" x2="0.000122027" y2="440.5" stroke="black"/>
<line x1="1440" y1="480.5" x2="0.000122027" y2="480.5" stroke="black"/>
<line x1="1440" y1="520.501" x2="0.000122027" y2="520.501" stroke="black"/>
<line x1="1440" y1="560.501" x2="0.000122027" y2="560.501" stroke="black"/>
<line x1="1440" y1="600.501" x2="0.000122027" y2="600.501" stroke="black"/>
<line x1="1440" y1="640.501" x2="0.000122027" y2="640.501" stroke="black"/>
<line x1="1440" y1="680.501" x2="0.000122027" y2="680.501" stroke="black"/>
<line x1="1440" y1="720.501" x2="6.09914e-05" y2="720.501" stroke="black"/>
<line x1="1440" y1="760.501" x2="6.09914e-05" y2="760.501" stroke="black"/>
<line x1="1440" y1="800.501" x2="6.09914e-05" y2="800.501" stroke="black"/>
<line x1="1440" y1="840.501" x2="6.09914e-05" y2="840.501" stroke="black"/>
<line x1="1440" y1="880.501" x2="6.09914e-05" y2="880.501" stroke="black"/>
<line x1="1440" y1="920.501" x2="6.09914e-05" y2="920.501" stroke="black"/>
<line x1="1440" y1="960.501" x2="6.09914e-05" y2="960.501" stroke="black"/>
<line x1="1440" y1="1000.5" x2="6.09914e-05" y2="1000.5" stroke="black"/>
<line x1="1440" y1="1040.5" x2="6.09914e-05" y2="1040.5" stroke="black"/>
<line x1="1440" y1="1080.5" x2="6.09914e-05" y2="1080.5" stroke="black"/>
<line x1="1440" y1="1120.5" x2="6.09914e-05" y2="1120.5" stroke="black"/>
<line x1="1440" y1="1160.5" x2="6.09914e-05" y2="1160.5" stroke="black"/>
<line x1="1440" y1="1200.5" x2="6.09914e-05" y2="1200.5" stroke="black"/>
<line x1="1440" y1="1240.5" x2="6.09914e-05" y2="1240.5" stroke="black"/>
<line x1="1440" y1="1280.5" x2="6.09914e-05" y2="1280.5" stroke="black"/>
<line x1="1440" y1="1320.5" x2="6.09914e-05" y2="1320.5" stroke="black"/>
<line x1="1440" y1="1360.5" x2="6.09914e-05" y2="1360.5" stroke="black"/>
<line x1="1440" y1="1400.5" x2="6.09914e-05" y2="1400.5" stroke="black"/>
<line x1="1440" y1="1440.5" x2="6.09914e-05" y2="1440.5" stroke="black"/>
<line x1="1440" y1="1480.5" x2="6.09914e-05" y2="1480.5" stroke="black"/>
<line x1="1440" y1="1520.5" x2="6.09914e-05" y2="1520.5" stroke="black"/>
<line x1="1440" y1="1560.5" x2="6.09914e-05" y2="1560.5" stroke="black"/>
<line x1="1440" y1="1600.5" x2="6.09914e-05" y2="1600.5" stroke="black"/>
<line x1="1440" y1="1640.5" x2="6.09914e-05" y2="1640.5" stroke="black"/>
<line x1="1440" y1="1680.5" x2="6.09914e-05" y2="1680.5" stroke="black"/>
<line x1="1440" y1="1720.5" x2="6.09914e-05" y2="1720.5" stroke="black"/>
<line x1="1440" y1="1760.5" x2="6.09914e-05" y2="1760.5" stroke="black"/>
<line x1="1440" y1="1800.5" x2="6.09914e-05" y2="1800.5" stroke="black"/>
<line x1="1440" y1="1840.5" x2="6.09914e-05" y2="1840.5" stroke="black"/>
<line x1="1440" y1="1880.5" x2="6.09914e-05" y2="1880.5" stroke="black"/>
<line x1="1440" y1="1920.5" x2="6.09914e-05" y2="1920.5" stroke="black"/>
<line x1="1440" y1="1960.5" x2="6.09914e-05" y2="1960.5" stroke="black"/>
<line x1="1440" y1="2000.5" x2="6.09914e-05" y2="2000.5" stroke="black"/>
<line x1="1440" y1="2040.5" x2="6.09914e-05" y2="2040.5" stroke="black"/>
<line x1="1440" y1="2080.5" x2="6.09914e-05" y2="2080.5" stroke="black"/>
<line x1="1440" y1="2120.5" x2="-4.37115e-08" y2="2120.5" stroke="black"/>
<line x1="1440" y1="2160.5" x2="-4.37115e-08" y2="2160.5" stroke="black"/>
<line x1="1440" y1="2200.5" x2="-4.37115e-08" y2="2200.5" stroke="black"/>
<line x1="1440" y1="2240.5" x2="-4.37115e-08" y2="2240.5" stroke="black"/>
</mask>
<g mask="url(#mask0)">
<rect width="1440" height="2377" fill="url(#paint0_radial)"/>
</g>
</g>
<defs>
<radialGradient id="paint0_radial" cx="0" cy="0" r="1" gradientUnits="userSpaceOnUse" gradientTransform="translate(1251 321) rotate(104.481) scale(2123.46 1291.4)">
<stop stop-color="#AFFFE2" stop-opacity="0.2"/>
<stop offset="1" stop-color="#AFFFE2" stop-opacity="0"/>
</radialGradient>
</defs>
</svg>
