<svg width="88" height="30" viewBox="0 0 88 30" fill="none" xmlns="http://www.w3.org/2000/svg">
<path d="M44.2107 18.8833L46.6646 16.2769V14.2025H38.0486V16.7557H42.7383L40.6116 18.9897V21.0642H42.0294C43.2291 21.0642 43.829 21.4365 43.829 22.1812C43.829 22.5535 43.6654 22.8727 43.3382 23.0854C43.011 23.2982 42.5747 23.4046 41.9749 23.4046C41.4296 23.4046 40.8297 23.2982 40.2299 23.1386C39.63 22.9791 39.1392 22.7131 38.6484 22.4471L37.4487 24.894C38.0486 25.2663 38.7575 25.5323 39.5755 25.745C40.3935 25.9578 41.2114 26.0642 42.084 26.0642C43.2291 26.0642 44.2107 25.9046 44.9741 25.5322C45.7376 25.1599 46.3374 24.6812 46.7192 24.0961C47.1009 23.511 47.2645 22.8727 47.2645 22.1812C47.2645 21.3301 46.9918 20.6386 46.4465 20.0535C45.9557 19.4684 45.1923 19.0961 44.2107 18.8833ZM57.1348 18.6174H52.5541V14.2557H49.1731V25.8514H52.5541V21.3301H57.1348V25.8514H60.5158V14.2557H57.1348V18.6174ZM83.3647 19.8408L87.9454 14.2557H83.91L79.711 19.7344H79.602V14.2557H76.2755V25.8514H79.602V20.3195L83.6373 25.8514H87.9999L83.3647 19.8408ZM71.4222 14.6812C70.5497 14.2557 69.5681 14.0429 68.4774 14.0429C67.3323 14.0429 66.3507 14.2557 65.5327 14.6812C64.6602 15.1067 64.0058 15.745 63.5696 16.5961C63.0788 17.4471 62.8606 18.4578 62.8606 19.628V25.9046H66.1871V23.3514H70.8223V25.9046H74.2033V19.5748C74.2033 18.4046 73.9852 17.394 73.4944 16.5429C72.8945 15.745 72.2401 15.1067 71.4222 14.6812ZM70.7133 20.745H66.078V19.3088C66.078 18.4578 66.2962 17.8195 66.7324 17.394C67.1687 16.9684 67.714 16.7557 68.4229 16.7557C69.1318 16.7557 69.6771 16.9684 70.1134 17.394C70.5497 17.8195 70.7678 18.4578 70.7678 19.3088V20.745H70.7133ZM80.2564 4.52161H78.2387V10.5323H80.2564V4.52161ZM66.5143 8.29821H68.4229V10.5323H70.4951V4.52161H68.4229V6.64927H66.5143V4.52161H64.4421V10.5323H66.5143V8.29821ZM85.7096 7.39395V10.4791H87.7272V4.52161H85.7641L83.6373 7.65991V4.52161H81.6197V10.5323H83.5828L85.7096 7.39395ZM52.6086 10.2131C53.1539 10.4791 53.6993 10.6386 54.3536 10.6386C54.9535 10.6386 55.4988 10.5323 55.9351 10.3195C56.4259 10.1067 56.8076 9.84076 57.0802 9.41523L55.7715 8.29821C55.3898 8.77693 54.9535 8.9897 54.4082 8.9897C53.9719 8.9897 53.6447 8.83012 53.3721 8.56417C53.0994 8.29821 52.9903 7.92587 52.9903 7.44715C52.9903 6.96842 53.0994 6.64927 53.3721 6.33012C53.6447 6.06417 53.9719 5.90459 54.4082 5.90459C54.899 5.90459 55.3898 6.11736 55.7715 6.59608L57.0802 5.47906C56.7531 5.10672 56.3713 4.78757 55.9351 4.57481C55.4443 4.36204 54.9535 4.25566 54.3536 4.25566C53.6993 4.25566 53.0994 4.36204 52.6086 4.628C52.0633 4.89395 51.6816 5.26629 51.4089 5.74502C51.1363 6.22374 50.9727 6.75566 50.9727 7.39395C50.9727 7.97906 51.1363 8.56417 51.4089 8.9897C51.6816 9.5748 52.0633 9.94715 52.6086 10.2131ZM83.2556 3.77693C83.5283 4.04289 84.0191 4.14927 84.728 4.14927C85.3824 4.14927 85.8731 4.04289 86.2003 3.77693C86.5275 3.51098 86.6366 3.13864 86.6366 2.65991H85.2733C85.2733 2.87268 85.2188 2.97906 85.1642 3.08544C85.0552 3.19183 84.9461 3.19183 84.728 3.19183C84.5098 3.19183 84.4008 3.13864 84.2917 3.08544C84.2372 2.97906 84.1827 2.87268 84.1827 2.65991H82.8194C82.8194 3.19183 82.9284 3.56417 83.2556 3.77693ZM50.1547 8.9897H47.1009V8.19183H49.6639V6.75566H47.0464V6.06417H49.9911V4.52161H44.9741V10.5323H50.1002V8.9897H50.1547ZM63.4605 4.52161H57.8437V6.06417H59.6433V10.4791H61.6609V6.06417H63.4605V4.52161ZM77.6388 8.29821C77.6388 7.65991 77.4207 7.128 77.039 6.80885C76.6027 6.4897 76.0574 6.33012 75.2394 6.33012H73.9852V4.52161H71.9675V10.5323H75.0213C75.8393 10.5323 76.4936 10.3727 76.9844 9.94715C77.4207 9.57481 77.6388 9.04289 77.6388 8.29821ZM75.3485 8.88332C75.2394 8.9897 75.0213 9.09608 74.8032 9.09608H73.9306V7.76629H74.8032C75.2939 7.76629 75.5121 7.97906 75.5121 8.3514C75.5666 8.56417 75.4575 8.77693 75.3485 8.88332ZM40.448 8.77693C40.7752 8.77693 41.1569 8.72374 41.5386 8.61736V10.5323H43.5563V4.52161H41.5386V7.02161C41.3205 7.128 41.0478 7.18119 40.6661 7.18119C40.3389 7.18119 40.0663 7.07481 39.9027 6.91523C39.7391 6.75566 39.63 6.4897 39.63 6.11736V4.52161H37.6669V6.33012C37.6669 7.128 37.885 7.7131 38.3758 8.13864C38.8666 8.56417 39.5209 8.77693 40.448 8.77693Z" fill="white"/>
<path d="M23.0125 8.88298L13.0877 18.5638L7.57995 13.1915L4.85335 15.8511L13.0877 23.883L25.7391 11.5426L23.0125 8.88298ZM3.81724 5.6383C3.81724 4.57447 4.68975 3.7234 5.78039 3.7234H10.3611V0H5.72586C2.563 0 0 2.5 0 5.6383V10.1064H3.81724V5.6383ZM26.8843 5.6383V10.1064H30.7015V5.58511C30.7015 2.5 28.1385 0 24.9757 0H20.3404V3.7234H24.9757C26.0118 3.7234 26.8843 4.57447 26.8843 5.6383ZM26.8843 19.8404V24.3617C26.8843 25.3723 26.0118 26.2234 24.9757 26.2234H20.3404V29.9468H24.9757C28.1385 29.9468 30.756 27.4468 30.756 24.3085V19.7872H26.8843V19.8404ZM3.81724 24.3617V19.8404H0V24.3617C0 27.4468 2.563 30 5.78039 30H10.3611V26.2766H5.72586C4.68975 26.2234 3.81724 25.3723 3.81724 24.3617Z" fill="white"/>
</svg>
