<svg width="21" height="76" fill="none" xmlns="http://www.w3.org/2000/svg">
<path d="M15.6176 76H21V71.1843H15.6176C12.4412 71.1843 9.79412 68.2074 9.79412 64.1797V45.7051C9.79412 42.0277 8.64706 39.2258 5.73529 38C8.64706 36.7742 9.79412 33.9724 9.79412 30.2949V11.8203C9.79412 7.70507 12.4412 4.81567 15.6176 4.81567H21V0H15.6176C10.0588 0 4.58824 4.55299 4.58824 11.8203V29.7696C4.58824 33.0092 3.08824 35.8111 0 35.8111V40.1889C3.08824 40.1889 4.58824 42.9908 4.58824 46.2304V64.2673C4.58824 71.447 10.0588 76 15.6176 76Z" fill="#4F4C52"/>
</svg>
