<svg width="21" height="76" fill="none" xmlns="http://www.w3.org/2000/svg">
<path d="M5.38235 76H0V71.1843H5.38235C8.55882 71.1843 11.2059 68.2074 11.2059 64.1797V45.7051C11.2059 42.0277 12.3529 39.2258 15.2647 38C12.3529 36.7742 11.2059 33.9724 11.2059 30.2949V11.8203C11.2059 7.70507 8.55882 4.81567 5.38235 4.81567H0V0H5.38235C10.9412 0 16.4118 4.55299 16.4118 11.8203V29.7696C16.4118 33.0092 17.9118 35.8111 21 35.8111V40.1889C17.9118 40.1889 16.4118 42.9908 16.4118 46.2304V64.2673C16.4118 71.447 10.9412 76 5.38235 76Z" fill="#4F4C52"/>
</svg>
