<svg width="1440" height="485"  fill="none" xmlns="http://www.w3.org/2000/svg">
<line opacity="0.3" x1="0.5" y1="2.18557e-08" x2="0.499981" y2="436" stroke="white" stroke-opacity="0.2"/>
<line opacity="0.3" x1="40.5" y1="2.18557e-08" x2="40.5" y2="436" stroke="white" stroke-opacity="0.2"/>
<line opacity="0.3" x1="80.5" y1="2.18557e-08" x2="80.5" y2="436" stroke="white" stroke-opacity="0.2"/>
<line opacity="0.3" x1="120.5" y1="2.18557e-08" x2="120.5" y2="436" stroke="white" stroke-opacity="0.2"/>
<line opacity="0.3" x1="160.5" y1="2.18557e-08" x2="160.5" y2="436" stroke="white" stroke-opacity="0.2"/>
<line opacity="0.3" x1="200.5" y1="2.18557e-08" x2="200.5" y2="436" stroke="white" stroke-opacity="0.2"/>
<line opacity="0.3" x1="240.5" y1="2.18557e-08" x2="240.5" y2="436" stroke="white" stroke-opacity="0.2"/>
<line opacity="0.3" x1="280.5" y1="2.18557e-08" x2="280.5" y2="436" stroke="white" stroke-opacity="0.5"/>
<line opacity="0.3" x1="320.5" y1="2.18557e-08" x2="320.5" y2="436" stroke="white" stroke-opacity="0.2"/>
<line opacity="0.3" x1="360.5" y1="2.18557e-08" x2="360.5" y2="436" stroke="white" stroke-opacity="0.2"/>
<line opacity="0.3" x1="400.5" y1="2.18557e-08" x2="400.5" y2="436" stroke="white" stroke-opacity="0.2"/>
<line opacity="0.3" x1="440.5" y1="2.18557e-08" x2="440.5" y2="436" stroke="#3E2D69"/>
<line opacity="0.3" x1="480.5" y1="2.18557e-08" x2="480.5" y2="436" stroke="white" stroke-opacity="0.2"/>
<line opacity="0.5" x1="520.5" y1="2.18557e-08" x2="520.5" y2="436" stroke="#524076"/>
<line opacity="0.3" x1="560.5" y1="2.18557e-08" x2="560.5" y2="436" stroke="white" stroke-opacity="0.5"/>
<line opacity="0.3" x1="600.5" y1="2.18557e-08" x2="600.5" y2="436" stroke="white" stroke-opacity="0.2"/>
<line opacity="0.3" x1="640.5" y1="2.18557e-08" x2="640.5" y2="436" stroke="white" stroke-opacity="0.2"/>
<line opacity="0.3" x1="680.5" y1="2.18557e-08" x2="680.5" y2="436" stroke="white" stroke-opacity="0.2"/>
<line opacity="0.3" x1="720.5" y1="2.18557e-08" x2="720.5" y2="436" stroke="white" stroke-opacity="0.2"/>
<line opacity="0.3" x1="760.5" y1="2.18557e-08" x2="760.5" y2="436" stroke="white" stroke-opacity="0.2"/>
<line opacity="0.3" x1="800.5" y1="2.18557e-08" x2="800.5" y2="436" stroke="white" stroke-opacity="0.2"/>
<line opacity="0.3" x1="840.5" y1="2.18557e-08" x2="840.5" y2="436" stroke="white" stroke-opacity="0.2"/>
<line opacity="0.3" x1="880.5" y1="2.18557e-08" x2="880.5" y2="436" stroke="white" stroke-opacity="0.5"/>
<line opacity="0.3" x1="920.5" y1="2.18557e-08" x2="920.5" y2="436" stroke="white" stroke-opacity="0.2"/>
<line opacity="0.3" x1="960.5" y1="2.18557e-08" x2="960.5" y2="436" stroke="white" stroke-opacity="0.2"/>
<line opacity="0.3" x1="1000.5" y1="2.18557e-08" x2="1000.5" y2="436" stroke="white" stroke-opacity="0.2"/>
<line opacity="0.3" x1="1040.5" y1="2.18557e-08" x2="1040.5" y2="436" stroke="white" stroke-opacity="0.2"/>
<line opacity="0.3" x1="1080.5" y1="2.18557e-08" x2="1080.5" y2="436" stroke="white" stroke-opacity="0.5"/>
<line opacity="0.3" x1="1120.5" y1="2.18557e-08" x2="1120.5" y2="436" stroke="white" stroke-opacity="0.2"/>
<line opacity="0.3" x1="1160.5" y1="2.18557e-08" x2="1160.5" y2="436" stroke="white" stroke-opacity="0.2"/>
<line opacity="0.3" x1="1200.5" y1="2.18557e-08" x2="1200.5" y2="436" stroke="white" stroke-opacity="0.2"/>
<line opacity="0.3" x1="1240.5" y1="2.18557e-08" x2="1240.5" y2="436" stroke="white" stroke-opacity="0.2"/>
<line opacity="0.3" x1="1280.5" y1="2.18557e-08" x2="1280.5" y2="436" stroke="white" stroke-opacity="0.2"/>
<line opacity="0.3" x1="1320.5" y1="2.18557e-08" x2="1320.5" y2="436" stroke="white" stroke-opacity="0.2"/>
<line opacity="0.3" x1="1360.5" y1="2.18557e-08" x2="1360.5" y2="436" stroke="white" stroke-opacity="0.2"/>
<line opacity="0.3" x1="1400.5" y1="2.18557e-08" x2="1400.5" y2="436" stroke="white" stroke-opacity="0.2"/>
</svg>
