<svg width="1440" height="1520" viewBox="0 0 1440 1520" fill="none" xmlns="http://www.w3.org/2000/svg">
<g opacity="0.4">
<mask id="mask0" mask-type="alpha" maskUnits="userSpaceOnUse" x="-2" y="-767" width="1443" height="2287">
<line x1="1439.5" y1="1520" x2="1439.5" y2="-766" stroke="black"/>
<line x1="1399.5" y1="1520" x2="1399.5" y2="-766" stroke="black"/>
<line x1="1359.5" y1="1520" x2="1359.5" y2="-766" stroke="black"/>
<line x1="1319.5" y1="1520" x2="1319.5" y2="-766" stroke="black"/>
<line x1="1279.5" y1="1520" x2="1279.5" y2="-766" stroke="black"/>
<line x1="1239.5" y1="1520" x2="1239.5" y2="-766" stroke="black"/>
<line x1="1199.5" y1="1520" x2="1199.5" y2="-766" stroke="black"/>
<line x1="1159.5" y1="1520" x2="1159.5" y2="-766" stroke="black"/>
<line x1="1119.5" y1="1520" x2="1119.5" y2="-766" stroke="black"/>
<line x1="1079.5" y1="1520" x2="1079.5" y2="-766" stroke="black"/>
<line x1="1039.5" y1="1520" x2="1039.5" y2="-766" stroke="black"/>
<line x1="999.499" y1="1520" x2="999.499" y2="-766" stroke="black"/>
<line x1="959.499" y1="1520" x2="959.498" y2="-766" stroke="black"/>
<line x1="919.499" y1="1520" x2="919.498" y2="-766" stroke="black"/>
<line x1="879.499" y1="1520" x2="879.498" y2="-766" stroke="black"/>
<line x1="839.499" y1="1520" x2="839.498" y2="-766" stroke="black"/>
<line x1="799.498" y1="1520" x2="799.498" y2="-766" stroke="black"/>
<line x1="759.498" y1="1520" x2="759.498" y2="-766" stroke="black"/>
<line x1="719.498" y1="1520" x2="719.498" y2="-766" stroke="black"/>
<line x1="679.498" y1="1520" x2="679.498" y2="-766" stroke="black"/>
<line x1="639.498" y1="1520" x2="639.497" y2="-766" stroke="black"/>
<line x1="599.498" y1="1520" x2="599.497" y2="-766" stroke="black"/>
<line x1="559.498" y1="1520" x2="559.497" y2="-766" stroke="black"/>
<line x1="519.498" y1="1520" x2="519.497" y2="-766" stroke="black"/>
<line x1="479.497" y1="1520" x2="479.497" y2="-766" stroke="black"/>
<line x1="439.497" y1="1520" x2="439.497" y2="-766" stroke="black"/>
<line x1="399.497" y1="1520" x2="399.497" y2="-766" stroke="black"/>
<line x1="359.497" y1="1520" x2="359.497" y2="-766" stroke="black"/>
<line x1="319.497" y1="1520" x2="319.497" y2="-766" stroke="black"/>
<line x1="279.497" y1="1520" x2="279.496" y2="-766" stroke="black"/>
<line x1="239.497" y1="1520" x2="239.496" y2="-766" stroke="black"/>
<line x1="199.497" y1="1520" x2="199.496" y2="-766" stroke="black"/>
<line x1="159.496" y1="1520" x2="159.496" y2="-766" stroke="black"/>
<line x1="119.496" y1="1520" x2="119.496" y2="-766" stroke="black"/>
<line x1="79.4961" y1="1520" x2="79.496" y2="-766" stroke="black"/>
<line x1="39.4961" y1="1520" x2="39.496" y2="-766" stroke="black"/>
<line y1="1519.5" x2="1440" y2="1519.5" stroke="black"/>
<line y1="1479.5" x2="1440" y2="1479.5" stroke="black"/>
<line y1="1439.5" x2="1440" y2="1439.5" stroke="black"/>
<line y1="1399.5" x2="1440" y2="1399.5" stroke="black"/>
<line y1="1359.5" x2="1440" y2="1359.5" stroke="black"/>
<line y1="1319.5" x2="1440" y2="1319.5" stroke="black"/>
<line y1="1279.5" x2="1440" y2="1279.5" stroke="black"/>
<line y1="1239.5" x2="1440" y2="1239.5" stroke="black"/>
<line y1="1199.5" x2="1440" y2="1199.5" stroke="black"/>
<line y1="1159.5" x2="1440" y2="1159.5" stroke="black"/>
<line y1="1119.5" x2="1440" y2="1119.5" stroke="black"/>
<line y1="1079.5" x2="1440" y2="1079.5" stroke="black"/>
<line y1="1039.5" x2="1440" y2="1039.5" stroke="black"/>
<line y1="999.499" x2="1440" y2="999.499" stroke="black"/>
<line y1="959.499" x2="1440" y2="959.499" stroke="black"/>
<line y1="919.499" x2="1440" y2="919.499" stroke="black"/>
<line y1="879.499" x2="1440" y2="879.499" stroke="black"/>
<line y1="839.499" x2="1440" y2="839.499" stroke="black"/>
<line y1="799.499" x2="1440" y2="799.499" stroke="black"/>
<line y1="759.499" x2="1440" y2="759.499" stroke="black"/>
<line y1="719.499" x2="1440" y2="719.499" stroke="black"/>
<line y1="679.499" x2="1440" y2="679.499" stroke="black"/>
<line y1="639.499" x2="1440" y2="639.499" stroke="black"/>
<line y1="599.499" x2="1440" y2="599.499" stroke="black"/>
<line y1="559.499" x2="1440" y2="559.499" stroke="black"/>
<line y1="519.498" x2="1440" y2="519.498" stroke="black"/>
<line y1="479.498" x2="1440" y2="479.498" stroke="black"/>
<line y1="439.498" x2="1440" y2="439.498" stroke="black"/>
<line y1="399.498" x2="1440" y2="399.498" stroke="black"/>
<line y1="359.498" x2="1440" y2="359.498" stroke="black"/>
<line y1="319.498" x2="1440" y2="319.498" stroke="black"/>
<line y1="279.498" x2="1440" y2="279.498" stroke="black"/>
<line y1="239.498" x2="1440" y2="239.498" stroke="black"/>
<line y1="199.497" x2="1440" y2="199.497" stroke="black"/>
<line y1="159.497" x2="1440" y2="159.497" stroke="black"/>
<line y1="119.497" x2="1440" y2="119.497" stroke="black"/>
<line y1="79.4971" x2="1440" y2="79.4971" stroke="black"/>
<line y1="39.4968" x2="1440" y2="39.4968" stroke="black"/>
</mask>
<g mask="url(#mask0)">
<rect x="1440" y="1520" width="1440" height="1520" transform="rotate(180 1440 1520)" fill="url(#paint0_radial)"/>
</g>
</g>
<defs>
<radialGradient id="paint0_radial" cx="0" cy="0" r="1" gradientUnits="userSpaceOnUse" gradientTransform="translate(2691 1725.27) rotate(111.993) scale(1417.92 1236.71)">
<stop stop-color="#AFFFE2" stop-opacity="0.2"/>
<stop offset="1" stop-color="#AFFFE2" stop-opacity="0"/>
</radialGradient>
</defs>
</svg>
