<svg width="767" height="630" viewBox="0 0 767 630" fill="none" xmlns="http://www.w3.org/2000/svg">
<g clip-path="url(#clip0)">
<line opacity="0.3" x1="0.5" y1="2.18557e-08" x2="0.499972" y2="630" stroke="white" stroke-opacity="0.2"/>
<line opacity="0.3" x1="40.5" y1="2.18557e-08" x2="40.5" y2="630" stroke="white" stroke-opacity="0.5"/>
<line opacity="0.3" x1="80.5001" y1="2.18557e-08" x2="80.5001" y2="630" stroke="white" stroke-opacity="0.2"/>
<line opacity="0.3" x1="120.5" y1="2.18557e-08" x2="120.5" y2="630" stroke="white" stroke-opacity="0.5"/>
<line opacity="0.3" x1="160.5" y1="2.18557e-08" x2="160.5" y2="630" stroke="white" stroke-opacity="0.2"/>
<line opacity="0.3" x1="200.5" y1="2.18557e-08" x2="200.5" y2="630" stroke="white" stroke-opacity="0.5"/>
<line opacity="0.3" x1="240.5" y1="2.18557e-08" x2="240.5" y2="630" stroke="white" stroke-opacity="0.2"/>
<line opacity="0.3" x1="280.5" y1="2.18557e-08" x2="280.5" y2="630" stroke="white" stroke-opacity="0.5"/>
<line opacity="0.3" x1="320.5" y1="2.18557e-08" x2="320.5" y2="630" stroke="white" stroke-opacity="0.2"/>
<line opacity="0.3" x1="360.5" y1="2.18557e-08" x2="360.5" y2="630" stroke="white" stroke-opacity="0.2"/>
<line opacity="0.3" x1="400.5" y1="2.18557e-08" x2="400.5" y2="630" stroke="white" stroke-opacity="0.2"/>
<line opacity="0.3" x1="440.5" y1="2.18557e-08" x2="440.5" y2="630" stroke="white" stroke-opacity="0.2"/>
<line opacity="0.3" x1="480.5" y1="2.18557e-08" x2="480.5" y2="630" stroke="white" stroke-opacity="0.2"/>
<line opacity="0.3" x1="520.5" y1="2.18557e-08" x2="520.5" y2="630" stroke="white" stroke-opacity="0.2"/>
<line opacity="0.3" x1="560.5" y1="2.18557e-08" x2="560.5" y2="630" stroke="white" stroke-opacity="0.2"/>
<line opacity="0.3" x1="600.5" y1="2.18557e-08" x2="600.5" y2="630" stroke="white" stroke-opacity="0.2"/>
<line opacity="0.3" x1="640.5" y1="2.18557e-08" x2="640.5" y2="630" stroke="white" stroke-opacity="0.2"/>
<line opacity="0.3" x1="680.5" y1="2.18557e-08" x2="680.5" y2="630" stroke="white" stroke-opacity="0.2"/>
<line opacity="0.3" x1="720.5" y1="2.18557e-08" x2="720.5" y2="630" stroke="white" stroke-opacity="0.2"/>
<line opacity="0.3" x1="760.5" y1="2.18557e-08" x2="760.5" y2="630" stroke="white" stroke-opacity="0.2"/>
</g>
<defs>
<clipPath id="clip0">
<rect width="767" height="630" fill="white"/>
</clipPath>
</defs>
</svg>
