<svg width="96" height="77" viewBox="0 0 96 77" fill="none" xmlns="http://www.w3.org/2000/svg">
<path d="M93.3913 15.5654H18.6087C17.168 15.5654 16 16.7336 16 18.1742V31.1617H96V18.1742C96 16.7336 94.832 15.5654 93.3913 15.5654ZM66.3569 26.8418C64.4389 26.8418 62.8786 25.2815 62.8786 23.3636C62.8786 21.4456 64.4389 19.8853 66.3569 19.8853C68.2748 19.8853 69.8352 21.4456 69.8352 23.3636C69.8352 25.2815 68.2748 26.8418 66.3569 26.8418ZM75.8322 26.8418C73.9142 26.8418 72.3539 25.2815 72.3539 23.3636C72.3539 21.4456 73.9142 19.8853 75.8322 19.8853C77.7502 19.8853 79.3105 21.4456 79.3105 23.3636C79.3105 25.2815 77.7502 26.8418 75.8322 26.8418ZM85.3075 26.8418C83.3895 26.8418 81.8292 25.2815 81.8292 23.3636C81.8292 21.4456 83.3895 19.8853 85.3075 19.8853C87.2255 19.8853 88.7858 21.4456 88.7858 23.3636C88.7858 25.2815 87.2255 26.8418 85.3075 26.8418Z" fill="#EEDC00"/>
<rect width="80" height="61" rx="3" fill="white" fill-opacity="0.14"/>
<path d="M16 36.3789V73.8263C16 75.2669 17.168 76.435 18.6087 76.435H93.3914C94.832 76.435 96.0002 75.267 96.0002 73.8263V36.3789H16ZM52.7891 58.3938L44.2495 65.66C43.1523 66.5938 41.5059 66.4611 40.5722 65.3638C39.6384 64.2666 39.7711 62.6202 40.8684 61.6864L47.073 56.4069L40.8684 51.1273C39.7711 50.1936 39.6386 48.5473 40.5722 47.45C41.5058 46.3525 43.1523 46.2202 44.2495 47.1538L52.7891 54.42C54.0125 55.4611 54.0125 57.3528 52.7891 58.3938ZM69.4409 66.2819H59.1356C57.695 66.2819 56.5269 65.1139 56.5269 63.6731C56.5269 62.2323 57.6948 61.0644 59.1356 61.0644H69.4409C70.8816 61.0644 72.0497 62.2323 72.0497 63.6731C72.0497 65.1139 70.8816 66.2819 69.4409 66.2819Z" fill="#EEDC00"/>
</svg>
