<svg width="171" height="63" viewBox="0 0 171 63" fill="none" xmlns="http://www.w3.org/2000/svg">
<path d="M4.312 13.1681C6.93 13.1681 8.05 10.6901 8.05 8.33812C8.05 5.98612 6.93 3.52212 4.312 3.52212C1.694 3.52212 0.574 5.98612 0.574 8.33812C0.574 10.6901 1.694 13.1681 4.312 13.1681ZM4.312 11.7121C2.786 11.7121 2.24 10.1161 2.24 8.33812C2.24 6.56012 2.786 4.97812 4.312 4.97812C5.838 4.97812 6.384 6.56012 6.384 8.33812C6.384 10.1161 5.838 11.7121 4.312 11.7121ZM12.953 13.0001V3.66212H11.525L8.83695 6.37812L9.78895 7.37212L11.315 5.79012V13.0001H12.953Z" fill="#58E77D"/>
<rect x="29" y="6.50012" width="112" height="6" rx="2" fill="#58E77D"/>
<path d="M4.312 35.1681C6.93 35.1681 8.05 32.6901 8.05 30.3381C8.05 27.9861 6.93 25.5221 4.312 25.5221C1.694 25.5221 0.574 27.9861 0.574 30.3381C0.574 32.6901 1.694 35.1681 4.312 35.1681ZM4.312 33.7121C2.786 33.7121 2.24 32.1161 2.24 30.3381C2.24 28.5601 2.786 26.9781 4.312 26.9781C5.838 26.9781 6.384 28.5601 6.384 30.3381C6.384 32.1161 5.838 33.7121 4.312 33.7121ZM16.089 35.0001V33.5581H11.945C14.451 31.6681 16.033 30.1281 16.033 28.4061C16.033 26.5441 14.451 25.5221 12.645 25.5221C11.343 25.5221 10.027 26.0261 9.20095 27.0201L10.153 28.0981C10.741 27.4261 11.581 26.9781 12.673 26.9781C13.527 26.9781 14.367 27.4261 14.367 28.4061C14.367 29.7501 12.953 30.9681 9.32695 33.7121V35.0001H16.089Z" fill="#58E77D"/>
<rect x="29" y="28.5001" width="93" height="6" rx="2" fill="#58E77D"/>
<rect x="127" y="28.5001" width="42" height="6" rx="2" fill="#58E77D"/>
<path d="M4.312 57.1681C6.93 57.1681 8.05 54.6901 8.05 52.3381C8.05 49.9861 6.93 47.5221 4.312 47.5221C1.694 47.5221 0.574 49.9861 0.574 52.3381C0.574 54.6901 1.694 57.1681 4.312 57.1681ZM4.312 55.7121C2.786 55.7121 2.24 54.1161 2.24 52.3381C2.24 50.5601 2.786 48.9781 4.312 48.9781C5.838 48.9781 6.384 50.5601 6.384 52.3381C6.384 54.1161 5.838 55.7121 4.312 55.7121ZM12.491 57.1681C14.647 57.1681 16.005 56.0341 16.005 54.4521C16.005 53.0101 14.745 52.2681 13.835 52.1841C14.801 52.0161 15.865 51.2881 15.865 50.0421C15.865 48.4741 14.507 47.5221 12.491 47.5221C10.937 47.5221 9.80295 48.1521 9.08895 48.9921L9.92895 50.0141C10.601 49.3421 11.385 48.9781 12.337 48.9781C13.387 48.9781 14.227 49.4261 14.227 50.2941C14.227 51.1481 13.401 51.5261 12.309 51.5261C11.945 51.5261 11.399 51.5261 11.231 51.5121V52.9821C11.371 52.9681 11.917 52.9681 12.309 52.9681C13.639 52.9681 14.381 53.3601 14.381 54.2841C14.381 55.1521 13.667 55.7121 12.435 55.7121C11.441 55.7121 10.447 55.2781 9.84495 54.5781L8.96295 55.6561C9.59295 56.4961 10.825 57.1681 12.491 57.1681Z" fill="#58E77D"/>
<rect x="29" y="50.5001" width="35" height="6" rx="2" fill="#58E77D"/>
<rect x="69" y="50.5001" width="87" height="6" rx="2" fill="#58E77D"/>
</svg>
