<svg width="141" height="49" viewBox="0 0 141 49" fill="none" xmlns="http://www.w3.org/2000/svg">
<path d="M71.0634 30.4232L74.9651 26.277V22.977H61.2658V27.0386H68.7224L65.3409 30.5924V33.8924H67.5952C69.5027 33.8924 70.4565 34.4847 70.4565 35.6693C70.4565 36.2616 70.1964 36.7693 69.6761 37.1078C69.1559 37.4462 68.4623 37.6155 67.5085 37.6155C66.6415 37.6155 65.6877 37.4462 64.734 37.1924C63.7802 36.9385 62.9999 36.5155 62.2195 36.0924L60.312 39.9847C61.2658 40.577 62.393 41.0001 63.6935 41.3386C64.9941 41.677 66.2947 41.8462 67.6819 41.8462C69.5027 41.8462 71.0634 41.5924 72.2773 41.0001C73.4912 40.4078 74.4449 39.6462 75.0518 38.7155C75.6588 37.7847 75.9189 36.7693 75.9189 35.6693C75.9189 34.3155 75.4854 33.2155 74.6183 32.2847C73.838 31.3539 72.6241 30.7616 71.0634 30.4232ZM91.6124 30.0001H84.3292V23.0616H78.9535V41.5078H84.3292V34.3155H91.6124V41.5078H96.9881V23.0616H91.6124V30.0001ZM133.317 31.9462L140.601 23.0616H134.184L127.508 31.777H127.335V23.0616H122.046V41.5078H127.335V32.7078L133.751 41.5078H140.687L133.317 31.9462ZM114.329 23.7386C112.942 23.0616 111.381 22.7232 109.647 22.7232C107.826 22.7232 106.266 23.0616 104.965 23.7386C103.578 24.4155 102.537 25.4309 101.844 26.7847C101.063 28.1386 100.716 29.7462 100.716 31.6078V41.5924H106.005V37.5309H113.375V41.5924H118.751V31.5232C118.751 29.6616 118.404 28.0539 117.624 26.7001C116.67 25.4309 115.63 24.4155 114.329 23.7386ZM113.202 33.3847H105.832V31.1001C105.832 29.7462 106.179 28.7309 106.872 28.0539C107.566 27.377 108.433 27.0386 109.56 27.0386C110.687 27.0386 111.555 27.377 112.248 28.0539C112.942 28.7309 113.289 29.7462 113.289 31.1001V33.3847H113.202ZM128.375 7.57702H125.167V17.1386H128.375V7.57702ZM106.526 13.5847H109.56V17.1386H112.855V7.57702H109.56V10.9616H106.526V7.57702H103.231V17.1386H106.526V13.5847ZM137.046 12.1462V17.0539H140.254V7.57702H137.132L133.751 12.5693V7.57702H130.543V17.1386H133.664L137.046 12.1462ZM84.4159 16.6309C85.283 17.0539 86.15 17.3078 87.1905 17.3078C88.1442 17.3078 89.0113 17.1386 89.7049 16.8001C90.4853 16.4616 91.0922 16.0386 91.5257 15.3616L89.4448 13.5847C88.8379 14.3462 88.1442 14.6847 87.2772 14.6847C86.5836 14.6847 86.0633 14.4309 85.6298 14.0078C85.1963 13.5847 85.0229 12.9924 85.0229 12.2309C85.0229 11.4693 85.1963 10.9616 85.6298 10.4539C86.0633 10.0309 86.5836 9.77702 87.2772 9.77702C88.0575 9.77702 88.8379 10.1155 89.4448 10.877L91.5257 9.10009C91.0055 8.50779 90.3986 8.00009 89.7049 7.66163C88.9246 7.32317 88.1442 7.15394 87.1905 7.15394C86.15 7.15394 85.1963 7.32317 84.4159 7.74625C83.5489 8.16932 82.942 8.76163 82.5084 9.52317C82.0749 10.2847 81.8148 11.1309 81.8148 12.1462C81.8148 13.077 82.0749 14.0078 82.5084 14.6847C82.942 15.6155 83.5489 16.2078 84.4159 16.6309ZM133.144 6.3924C133.577 6.81548 134.358 6.98471 135.485 6.98471C136.525 6.98471 137.306 6.81548 137.826 6.3924C138.346 5.96932 138.52 5.37702 138.52 4.61548H136.352C136.352 4.95394 136.265 5.12317 136.179 5.2924C136.005 5.46163 135.832 5.46163 135.485 5.46163C135.138 5.46163 134.965 5.37702 134.791 5.2924C134.705 5.12317 134.618 4.95394 134.618 4.61548H132.45C132.45 5.46163 132.624 6.05394 133.144 6.3924ZM80.5142 14.6847H75.6588V13.4155H79.7339V11.1309H75.5721V10.0309H80.2541V7.57702H72.2773V17.1386H80.4275V14.6847H80.5142ZM101.67 7.57702H92.7396V10.0309H95.6008V17.0539H98.8089V10.0309H101.67V7.57702ZM124.213 13.5847C124.213 12.5693 123.867 11.7232 123.26 11.2155C122.566 10.7078 121.699 10.4539 120.398 10.4539H118.404V7.57702H115.196V17.1386H120.052C121.352 17.1386 122.393 16.8847 123.173 16.2078C123.867 15.6155 124.213 14.7693 124.213 13.5847ZM120.572 14.5155C120.398 14.6847 120.052 14.8539 119.705 14.8539H118.317V12.7386H119.705C120.485 12.7386 120.832 13.077 120.832 13.6693C120.919 14.0078 120.745 14.3462 120.572 14.5155ZM65.0808 14.3462C65.601 14.3462 66.208 14.2616 66.8149 14.0924V17.1386H70.023V7.57702H66.8149V11.5539C66.4681 11.7232 66.0346 11.8078 65.4276 11.8078C64.9074 11.8078 64.4739 11.6386 64.2138 11.3847C63.9536 11.1309 63.7802 10.7078 63.7802 10.1155V7.57702H60.6589V10.4539C60.6589 11.7232 61.0057 12.6539 61.786 13.3309C62.5664 14.0078 63.6068 14.3462 65.0808 14.3462Z" fill="#251D27"/>
<path d="M37.3586 14.5153L21.5783 29.9153L12.8212 21.3691L8.48594 25.5999L21.5783 38.3768L41.6938 18.7461L37.3586 14.5153ZM6.83855 9.35375C6.83855 7.66144 8.22583 6.3076 9.95992 6.3076H17.2431V0.384521H9.87322C4.84435 0.384521 0.769226 4.36144 0.769226 9.35375V16.4614H6.83855V9.35375ZM43.5146 9.35375V16.4614H49.584V9.26914C49.584 4.36144 45.5088 0.384521 40.48 0.384521H33.1101V6.3076H40.48C42.1273 6.3076 43.5146 7.66144 43.5146 9.35375ZM43.5146 31.9461V39.1384C43.5146 40.7461 42.1273 42.0999 40.48 42.0999H33.1101V48.023H40.48C45.5088 48.023 49.6707 44.0461 49.6707 39.0537V31.8614H43.5146V31.9461ZM6.83855 39.1384V31.9461H0.769226V39.1384C0.769226 44.0461 4.84435 48.1076 9.95992 48.1076H17.2431V42.1845H9.87322C8.22583 42.0999 6.83855 40.7461 6.83855 39.1384Z" fill="#251D27"/>
</svg>
