<svg width="1440" height="1978" viewBox="0 0 1440 1978" fill="none" xmlns="http://www.w3.org/2000/svg">
<g opacity="0.4">
<mask id="mask0" mask-type="alpha" maskUnits="userSpaceOnUse" x="-2" y="-309" width="1443" height="2287">
<line x1="1439.5" y1="1978" x2="1439.5" y2="-308" stroke="black"/>
<line x1="1399.5" y1="1978" x2="1399.5" y2="-308" stroke="black"/>
<line x1="1359.5" y1="1978" x2="1359.5" y2="-308" stroke="black"/>
<line x1="1319.5" y1="1978" x2="1319.5" y2="-308" stroke="black"/>
<line x1="1279.5" y1="1978" x2="1279.5" y2="-308" stroke="black"/>
<line x1="1239.5" y1="1978" x2="1239.5" y2="-308" stroke="black"/>
<line x1="1199.5" y1="1978" x2="1199.5" y2="-308" stroke="black"/>
<line x1="1159.5" y1="1978" x2="1159.5" y2="-308" stroke="black"/>
<line x1="1119.5" y1="1978" x2="1119.5" y2="-308" stroke="black"/>
<line x1="1079.5" y1="1978" x2="1079.5" y2="-308" stroke="black"/>
<line x1="1039.5" y1="1978" x2="1039.5" y2="-308" stroke="black"/>
<line x1="999.499" y1="1978" x2="999.499" y2="-308" stroke="black"/>
<line x1="959.499" y1="1978" x2="959.498" y2="-308" stroke="black"/>
<line x1="919.499" y1="1978" x2="919.498" y2="-308" stroke="black"/>
<line x1="879.499" y1="1978" x2="879.498" y2="-308" stroke="black"/>
<line x1="839.499" y1="1978" x2="839.498" y2="-308" stroke="black"/>
<line x1="799.498" y1="1978" x2="799.498" y2="-308" stroke="black"/>
<line x1="759.498" y1="1978" x2="759.498" y2="-308" stroke="black"/>
<line x1="719.498" y1="1978" x2="719.498" y2="-308" stroke="black"/>
<line x1="679.498" y1="1978" x2="679.498" y2="-308" stroke="black"/>
<line x1="639.498" y1="1978" x2="639.497" y2="-308" stroke="black"/>
<line x1="599.498" y1="1978" x2="599.497" y2="-308" stroke="black"/>
<line x1="559.498" y1="1978" x2="559.497" y2="-308" stroke="black"/>
<line x1="519.498" y1="1978" x2="519.497" y2="-308" stroke="black"/>
<line x1="479.497" y1="1978" x2="479.497" y2="-308" stroke="black"/>
<line x1="439.497" y1="1978" x2="439.497" y2="-308" stroke="black"/>
<line x1="399.497" y1="1978" x2="399.497" y2="-308" stroke="black"/>
<line x1="359.497" y1="1978" x2="359.497" y2="-308" stroke="black"/>
<line x1="319.497" y1="1978" x2="319.497" y2="-308" stroke="black"/>
<line x1="279.497" y1="1978" x2="279.496" y2="-308" stroke="black"/>
<line x1="239.497" y1="1978" x2="239.496" y2="-308" stroke="black"/>
<line x1="199.497" y1="1978" x2="199.496" y2="-308" stroke="black"/>
<line x1="159.496" y1="1978" x2="159.496" y2="-308" stroke="black"/>
<line x1="119.496" y1="1978" x2="119.496" y2="-308" stroke="black"/>
<line x1="79.4961" y1="1978" x2="79.496" y2="-308" stroke="black"/>
<line x1="39.4961" y1="1978" x2="39.496" y2="-308" stroke="black"/>
<line y1="1977.5" x2="1440" y2="1977.5" stroke="black"/>
<line y1="1937.5" x2="1440" y2="1937.5" stroke="black"/>
<line y1="1897.5" x2="1440" y2="1897.5" stroke="black"/>
<line y1="1857.5" x2="1440" y2="1857.5" stroke="black"/>
<line y1="1817.5" x2="1440" y2="1817.5" stroke="black"/>
<line y1="1777.5" x2="1440" y2="1777.5" stroke="black"/>
<line y1="1737.5" x2="1440" y2="1737.5" stroke="black"/>
<line y1="1697.5" x2="1440" y2="1697.5" stroke="black"/>
<line y1="1657.5" x2="1440" y2="1657.5" stroke="black"/>
<line y1="1617.5" x2="1440" y2="1617.5" stroke="black"/>
<line y1="1577.5" x2="1440" y2="1577.5" stroke="black"/>
<line y1="1537.5" x2="1440" y2="1537.5" stroke="black"/>
<line y1="1497.5" x2="1440" y2="1497.5" stroke="black"/>
<line y1="1457.5" x2="1440" y2="1457.5" stroke="black"/>
<line y1="1417.5" x2="1440" y2="1417.5" stroke="black"/>
<line y1="1377.5" x2="1440" y2="1377.5" stroke="black"/>
<line y1="1337.5" x2="1440" y2="1337.5" stroke="black"/>
<line y1="1297.5" x2="1440" y2="1297.5" stroke="black"/>
<line y1="1257.5" x2="1440" y2="1257.5" stroke="black"/>
<line y1="1217.5" x2="1440" y2="1217.5" stroke="black"/>
<line y1="1177.5" x2="1440" y2="1177.5" stroke="black"/>
<line y1="1137.5" x2="1440" y2="1137.5" stroke="black"/>
<line y1="1097.5" x2="1440" y2="1097.5" stroke="black"/>
<line y1="1057.5" x2="1440" y2="1057.5" stroke="black"/>
<line y1="1017.5" x2="1440" y2="1017.5" stroke="black"/>
<line y1="977.499" x2="1440" y2="977.499" stroke="black"/>
<line y1="937.498" x2="1440" y2="937.498" stroke="black"/>
<line y1="897.498" x2="1440" y2="897.498" stroke="black"/>
<line y1="857.498" x2="1440" y2="857.498" stroke="black"/>
<line y1="817.498" x2="1440" y2="817.498" stroke="black"/>
<line y1="777.498" x2="1440" y2="777.498" stroke="black"/>
<line y1="737.498" x2="1440" y2="737.498" stroke="black"/>
<line y1="697.498" x2="1440" y2="697.498" stroke="black"/>
<line y1="657.497" x2="1440" y2="657.497" stroke="black"/>
<line y1="617.497" x2="1440" y2="617.497" stroke="black"/>
<line y1="577.497" x2="1440" y2="577.497" stroke="black"/>
<line y1="537.497" x2="1440" y2="537.497" stroke="black"/>
<line y1="497.497" x2="1440" y2="497.497" stroke="black"/>
<line y1="457.497" x2="1440" y2="457.497" stroke="black"/>
<line y1="417.497" x2="1440" y2="417.497" stroke="black"/>
<line y1="377.497" x2="1440" y2="377.497" stroke="black"/>
<line y1="337.496" x2="1440" y2="337.496" stroke="black"/>
<line y1="297.496" x2="1440" y2="297.496" stroke="black"/>
<line y1="257.496" x2="1440" y2="257.496" stroke="black"/>
<line y1="217.496" x2="1440" y2="217.496" stroke="black"/>
<line y1="177.496" x2="1440" y2="177.496" stroke="black"/>
<line y1="137.496" x2="1440" y2="137.496" stroke="black"/>
<line y1="97.4956" x2="1440" y2="97.4956" stroke="black"/>
<line y1="57.4956" x2="1440" y2="57.4956" stroke="black"/>
<line y1="17.4951" x2="1440" y2="17.4951" stroke="black"/>
</mask>
<g mask="url(#mask0)">
<rect x="1440" y="1978" width="1440" height="1520" transform="rotate(180 1440 1978)" fill="url(#paint0_linear)"/>
</g>
</g>
<defs>
<linearGradient id="paint0_linear" x1="2502.5" y1="1425" x2="2882.74" y2="3220.48" gradientUnits="userSpaceOnUse">
<stop stop-color="#AFFFE2" stop-opacity="0.2"/>
<stop offset="1" stop-color="#AFFFE2" stop-opacity="0"/>
</linearGradient>
</defs>
</svg>
