<svg width="45" height="45" fill="none" xmlns="http://www.w3.org/2000/svg">
<path d="M-0.000178056 16.6399L19.9439 16.6399C21.0429 16.6274 22.1334 16.8331 23.1523 17.245C24.1712 17.657 25.0983 18.2669 25.8798 19.0396C26.6613 19.8124 27.2817 20.7324 27.7051 21.7466C28.1285 22.7608 28.3465 23.8489 28.3464 24.948L28.3464 44.8921L44.8682 44.8921L44.8682 24.948C44.8713 21.6729 44.2289 18.4293 42.9777 15.4026C41.7265 12.3759 39.8911 9.62555 37.5764 7.30862C35.2616 4.99169 32.513 3.15363 29.4875 1.8996C26.462 0.64556 23.219 0.000121124 19.9439 0.000120981L-0.000177328 0.000120109L-0.000178056 16.6399Z" fill="#2B2630"/>
</svg>
