<svg width="45" height="45" fill="none" xmlns="http://www.w3.org/2000/svg">
<path d="M44.8683 28.2522L24.9242 28.2522C23.8253 28.2647 22.7347 28.059 21.7158 27.6471C20.6969 27.2351 19.7699 26.6252 18.9884 25.8525C18.2069 25.0797 17.5865 24.1596 17.1631 23.1455C16.7397 22.1313 16.5217 21.0432 16.5217 19.9441L16.5217 -7.22188e-07L1.11763e-05 0L1.20481e-05 19.9441C-0.00308921 23.2192 0.639316 26.4628 1.89049 29.4895C3.14166 32.5162 4.97707 35.2665 7.2918 37.5835C9.60654 39.9004 12.3552 41.7385 15.3807 42.9925C18.4061 44.2465 21.6491 44.892 24.9242 44.892L44.8683 44.892L44.8683 28.2522Z" fill="#2B2630"/>
</svg>
