<svg width="45" height="45" fill="none" xmlns="http://www.w3.org/2000/svg">
<path d="M-0.000175586 28.2522L19.9439 28.2522C21.0429 28.2647 22.1334 28.059 23.1523 27.6471C24.1712 27.2351 25.0983 26.6252 25.8798 25.8525C26.6613 25.0797 27.2817 24.1596 27.7051 23.1455C28.1285 22.1313 28.3465 21.0432 28.3464 19.9441L28.3464 2.16657e-06L44.8682 0L44.8682 19.9441C44.8713 23.2192 44.2289 26.4628 42.9777 29.4895C41.7265 32.5162 39.8911 35.2665 37.5764 37.5835C35.2616 39.9004 32.513 41.7385 29.4875 42.9925C26.462 44.2465 23.219 44.892 19.9439 44.892L-0.000173404 44.892L-0.000175586 28.2522Z" fill="#2B2630"/>
</svg>
