<svg width="45" height="45" fill="none" xmlns="http://www.w3.org/2000/svg">
<path d="M44.8683 16.6399L24.9242 16.6399C23.8253 16.6274 22.7347 16.8331 21.7158 17.245C20.6969 17.657 19.7699 18.2669 18.9884 19.0396C18.2069 19.8124 17.5865 20.7324 17.1631 21.7466C16.7397 22.7608 16.5217 23.8489 16.5217 24.948L16.5217 44.8921L1.11763e-05 44.8921L1.03045e-05 24.948C-0.00309124 21.6729 0.639314 18.4293 1.89048 15.4026C3.14165 12.3759 4.97706 9.62555 7.2918 7.30862C9.60654 4.99169 12.3552 3.15363 15.3807 1.8996C18.4061 0.64556 21.6491 0.000121124 24.9242 0.000120981L44.8683 0.000120109L44.8683 16.6399Z" fill="#2B2630"/>
</svg>
